<mxfile host="" modified="2021-05-14T08:08:11.500Z" agent="5.0 (Macintosh; Intel Mac OS X 10_15_6) AppleWebKit/537.36 (KHTML, like Gecko) Code/1.45.1 Chrome/78.0.3904.130 Electron/7.2.4 Safari/537.36" etag="E_JVBsXGy0E--zXSBXzB" version="13.1.3">
    <diagram id="7fsgo1S6CHd23wL7Mt0l" name="第 1 页">
        <mxGraphModel dx="1714" dy="550" grid="1" gridSize="10" guides="1" tooltips="1" connect="1" arrows="1" fold="1" page="1" pageScale="1" pageWidth="1100" pageHeight="850" math="0" shadow="0">
            <root>
                <mxCell id="0"/>
                <mxCell id="1" parent="0"/>
                <mxCell id="nmE42dB6QyYmcY3QH0II-2" value="用户感知指标" style="whiteSpace=wrap;html=1;rounded=1;arcSize=50;align=center;verticalAlign=middle;strokeWidth=1;autosize=1;spacing=4;treeFolding=1;treeMoving=1;newEdgeStyle={&quot;edgeStyle&quot;:&quot;entityRelationEdgeStyle&quot;,&quot;startArrow&quot;:&quot;none&quot;,&quot;endArrow&quot;:&quot;none&quot;,&quot;segment&quot;:10,&quot;curved&quot;:1};" parent="1" vertex="1">
                    <mxGeometry x="179.5" y="325" width="110" height="30" as="geometry"/>
                </mxCell>
                <mxCell id="nmE42dB6QyYmcY3QH0II-3" value="" style="edgeStyle=entityRelationEdgeStyle;startArrow=none;endArrow=none;segment=10;curved=1;entryX=0.5;entryY=1;entryDx=0;entryDy=0;exitX=0.5;exitY=0;exitDx=0;exitDy=0;" parent="1" source="nmE42dB6QyYmcY3QH0II-2" target="16" edge="1">
                    <mxGeometry relative="1" as="geometry">
                        <mxPoint x="613.5" y="435" as="sourcePoint"/>
                    </mxGeometry>
                </mxCell>
                <mxCell id="nmE42dB6QyYmcY3QH0II-4" value="技术指标（H5）" style="whiteSpace=wrap;html=1;rounded=1;arcSize=50;align=center;verticalAlign=middle;strokeWidth=1;autosize=1;spacing=4;treeFolding=1;treeMoving=1;newEdgeStyle={&quot;edgeStyle&quot;:&quot;entityRelationEdgeStyle&quot;,&quot;startArrow&quot;:&quot;none&quot;,&quot;endArrow&quot;:&quot;none&quot;,&quot;segment&quot;:10,&quot;curved&quot;:1};" parent="1" vertex="1">
                    <mxGeometry x="813.5" y="325" width="130" height="30" as="geometry"/>
                </mxCell>
                <mxCell id="nmE42dB6QyYmcY3QH0II-5" value="" style="edgeStyle=entityRelationEdgeStyle;startArrow=none;endArrow=none;segment=10;curved=1;entryX=0.5;entryY=0;entryDx=0;entryDy=0;exitX=0.5;exitY=1;exitDx=0;exitDy=0;" parent="1" source="16" target="nmE42dB6QyYmcY3QH0II-4" edge="1">
                    <mxGeometry relative="1" as="geometry">
                        <mxPoint x="833.5" y="95" as="sourcePoint"/>
                        <mxPoint x="689.5" y="183" as="targetPoint"/>
                    </mxGeometry>
                </mxCell>
                <mxCell id="nmE42dB6QyYmcY3QH0II-10" style="edgeStyle=orthogonalEdgeStyle;rounded=0;orthogonalLoop=1;jettySize=auto;html=1;" parent="1" source="nmE42dB6QyYmcY3QH0II-6" target="nmE42dB6QyYmcY3QH0II-7" edge="1">
                    <mxGeometry relative="1" as="geometry"/>
                </mxCell>
                <mxCell id="nmE42dB6QyYmcY3QH0II-6" value="FP?" style="whiteSpace=wrap;html=1;rounded=1;arcSize=50;align=center;verticalAlign=middle;strokeWidth=1;autosize=1;spacing=4;treeFolding=1;treeMoving=1;newEdgeStyle={&quot;edgeStyle&quot;:&quot;entityRelationEdgeStyle&quot;,&quot;startArrow&quot;:&quot;none&quot;,&quot;endArrow&quot;:&quot;none&quot;,&quot;segment&quot;:10,&quot;curved&quot;:1};" parent="1" vertex="1">
                    <mxGeometry x="53.5" y="405" width="60" height="30" as="geometry"/>
                </mxCell>
                <mxCell id="nmE42dB6QyYmcY3QH0II-11" style="edgeStyle=orthogonalEdgeStyle;rounded=0;orthogonalLoop=1;jettySize=auto;html=1;" parent="1" source="nmE42dB6QyYmcY3QH0II-7" target="nmE42dB6QyYmcY3QH0II-8" edge="1">
                    <mxGeometry relative="1" as="geometry"/>
                </mxCell>
                <mxCell id="nmE42dB6QyYmcY3QH0II-7" value="FCP?" style="whiteSpace=wrap;html=1;rounded=1;arcSize=50;align=center;verticalAlign=middle;strokeWidth=1;autosize=1;spacing=4;treeFolding=1;treeMoving=1;newEdgeStyle={&quot;edgeStyle&quot;:&quot;entityRelationEdgeStyle&quot;,&quot;startArrow&quot;:&quot;none&quot;,&quot;endArrow&quot;:&quot;none&quot;,&quot;segment&quot;:10,&quot;curved&quot;:1};" parent="1" vertex="1">
                    <mxGeometry x="153.5" y="405" width="70" height="30" as="geometry"/>
                </mxCell>
                <mxCell id="nmE42dB6QyYmcY3QH0II-13" style="edgeStyle=orthogonalEdgeStyle;rounded=0;orthogonalLoop=1;jettySize=auto;html=1;" parent="1" source="nmE42dB6QyYmcY3QH0II-8" target="nmE42dB6QyYmcY3QH0II-9" edge="1">
                    <mxGeometry relative="1" as="geometry"/>
                </mxCell>
                <mxCell id="nmE42dB6QyYmcY3QH0II-8" value="&lt;span&gt;FMP&lt;/span&gt;" style="whiteSpace=wrap;html=1;rounded=1;arcSize=50;align=center;verticalAlign=middle;strokeWidth=1;autosize=1;spacing=4;treeFolding=1;treeMoving=1;newEdgeStyle={&quot;edgeStyle&quot;:&quot;entityRelationEdgeStyle&quot;,&quot;startArrow&quot;:&quot;none&quot;,&quot;endArrow&quot;:&quot;none&quot;,&quot;segment&quot;:10,&quot;curved&quot;:1};" parent="1" vertex="1">
                    <mxGeometry x="261" y="405" width="70" height="30" as="geometry"/>
                </mxCell>
                <mxCell id="nmE42dB6QyYmcY3QH0II-9" value="TTI" style="whiteSpace=wrap;html=1;rounded=1;arcSize=50;align=center;verticalAlign=middle;strokeWidth=1;autosize=1;spacing=4;treeFolding=1;treeMoving=1;newEdgeStyle={&quot;edgeStyle&quot;:&quot;entityRelationEdgeStyle&quot;,&quot;startArrow&quot;:&quot;none&quot;,&quot;endArrow&quot;:&quot;none&quot;,&quot;segment&quot;:10,&quot;curved&quot;:1};" parent="1" vertex="1">
                    <mxGeometry x="373.5" y="405" width="60" height="30" as="geometry"/>
                </mxCell>
                <mxCell id="nmE42dB6QyYmcY3QH0II-14" style="edgeStyle=orthogonalEdgeStyle;rounded=0;orthogonalLoop=1;jettySize=auto;html=1;" parent="1" source="nmE42dB6QyYmcY3QH0II-15" target="nmE42dB6QyYmcY3QH0II-17" edge="1">
                    <mxGeometry relative="1" as="geometry"/>
                </mxCell>
                <mxCell id="nmE42dB6QyYmcY3QH0II-15" value="DOM Loading" style="whiteSpace=wrap;html=1;rounded=1;arcSize=50;align=center;verticalAlign=middle;strokeWidth=1;autosize=1;spacing=4;treeFolding=1;treeMoving=1;newEdgeStyle={&quot;edgeStyle&quot;:&quot;entityRelationEdgeStyle&quot;,&quot;startArrow&quot;:&quot;none&quot;,&quot;endArrow&quot;:&quot;none&quot;,&quot;segment&quot;:10,&quot;curved&quot;:1};" parent="1" vertex="1">
                    <mxGeometry x="562.5" y="445" width="110" height="30" as="geometry"/>
                </mxCell>
                <mxCell id="nmE42dB6QyYmcY3QH0II-16" style="edgeStyle=orthogonalEdgeStyle;rounded=0;orthogonalLoop=1;jettySize=auto;html=1;" parent="1" source="nmE42dB6QyYmcY3QH0II-17" target="nmE42dB6QyYmcY3QH0II-19" edge="1">
                    <mxGeometry relative="1" as="geometry"/>
                </mxCell>
                <mxCell id="nmE42dB6QyYmcY3QH0II-17" value="DOM Interactive" style="whiteSpace=wrap;html=1;rounded=1;arcSize=50;align=center;verticalAlign=middle;strokeWidth=1;autosize=1;spacing=4;treeFolding=1;treeMoving=1;newEdgeStyle={&quot;edgeStyle&quot;:&quot;entityRelationEdgeStyle&quot;,&quot;startArrow&quot;:&quot;none&quot;,&quot;endArrow&quot;:&quot;none&quot;,&quot;segment&quot;:10,&quot;curved&quot;:1};" parent="1" vertex="1">
                    <mxGeometry x="718.5" y="445" width="130" height="30" as="geometry"/>
                </mxCell>
                <mxCell id="nmE42dB6QyYmcY3QH0II-18" style="edgeStyle=orthogonalEdgeStyle;rounded=0;orthogonalLoop=1;jettySize=auto;html=1;" parent="1" source="nmE42dB6QyYmcY3QH0II-19" target="nmE42dB6QyYmcY3QH0II-20" edge="1">
                    <mxGeometry relative="1" as="geometry"/>
                </mxCell>
                <mxCell id="nmE42dB6QyYmcY3QH0II-19" value="DOM Content Loaded" style="whiteSpace=wrap;html=1;rounded=1;arcSize=50;align=center;verticalAlign=middle;strokeWidth=1;autosize=1;spacing=4;treeFolding=1;treeMoving=1;newEdgeStyle={&quot;edgeStyle&quot;:&quot;entityRelationEdgeStyle&quot;,&quot;startArrow&quot;:&quot;none&quot;,&quot;endArrow&quot;:&quot;none&quot;,&quot;segment&quot;:10,&quot;curved&quot;:1};" parent="1" vertex="1">
                    <mxGeometry x="913.5" y="445" width="160" height="30" as="geometry"/>
                </mxCell>
                <mxCell id="nmE42dB6QyYmcY3QH0II-20" value="DOM Complete" style="whiteSpace=wrap;html=1;rounded=1;arcSize=50;align=center;verticalAlign=middle;strokeWidth=1;autosize=1;spacing=4;treeFolding=1;treeMoving=1;newEdgeStyle={&quot;edgeStyle&quot;:&quot;entityRelationEdgeStyle&quot;,&quot;startArrow&quot;:&quot;none&quot;,&quot;endArrow&quot;:&quot;none&quot;,&quot;segment&quot;:10,&quot;curved&quot;:1};" parent="1" vertex="1">
                    <mxGeometry x="1140" y="445" width="120" height="30" as="geometry"/>
                </mxCell>
                <mxCell id="nmE42dB6QyYmcY3QH0II-23" value="" style="edgeStyle=entityRelationEdgeStyle;startArrow=none;endArrow=none;segment=10;curved=1;entryX=0.5;entryY=0;entryDx=0;entryDy=0;exitX=0.5;exitY=1;exitDx=0;exitDy=0;" parent="1" source="nmE42dB6QyYmcY3QH0II-2" target="nmE42dB6QyYmcY3QH0II-8" edge="1">
                    <mxGeometry relative="1" as="geometry">
                        <mxPoint x="608.5" y="435" as="sourcePoint"/>
                        <mxPoint x="358.5" y="505" as="targetPoint"/>
                    </mxGeometry>
                </mxCell>
                <mxCell id="nmE42dB6QyYmcY3QH0II-24" value="" style="edgeStyle=entityRelationEdgeStyle;startArrow=none;endArrow=none;segment=10;curved=1;entryX=0.5;entryY=0;entryDx=0;entryDy=0;exitX=0.5;exitY=1;exitDx=0;exitDy=0;" parent="1" source="nmE42dB6QyYmcY3QH0II-2" target="nmE42dB6QyYmcY3QH0II-9" edge="1">
                    <mxGeometry relative="1" as="geometry">
                        <mxPoint x="608.5" y="435" as="sourcePoint"/>
                        <mxPoint x="503.5" y="505" as="targetPoint"/>
                    </mxGeometry>
                </mxCell>
                <mxCell id="nmE42dB6QyYmcY3QH0II-25" value="" style="edgeStyle=entityRelationEdgeStyle;startArrow=none;endArrow=none;segment=10;curved=1;entryX=0.5;entryY=1;entryDx=0;entryDy=0;exitX=0.75;exitY=0;exitDx=0;exitDy=0;" parent="1" source="nmE42dB6QyYmcY3QH0II-15" target="nmE42dB6QyYmcY3QH0II-4" edge="1">
                    <mxGeometry relative="1" as="geometry">
                        <mxPoint x="583.5" y="535" as="sourcePoint"/>
                        <mxPoint x="633.5" y="605" as="targetPoint"/>
                    </mxGeometry>
                </mxCell>
                <mxCell id="nmE42dB6QyYmcY3QH0II-26" value="" style="edgeStyle=entityRelationEdgeStyle;startArrow=none;endArrow=none;segment=10;curved=1;exitX=0.5;exitY=0;exitDx=0;exitDy=0;entryX=0.5;entryY=1;entryDx=0;entryDy=0;" parent="1" source="nmE42dB6QyYmcY3QH0II-17" target="nmE42dB6QyYmcY3QH0II-4" edge="1">
                    <mxGeometry relative="1" as="geometry">
                        <mxPoint x="898.5" y="305" as="sourcePoint"/>
                        <mxPoint x="1078.5" y="355" as="targetPoint"/>
                    </mxGeometry>
                </mxCell>
                <mxCell id="nmE42dB6QyYmcY3QH0II-27" value="" style="edgeStyle=entityRelationEdgeStyle;startArrow=none;endArrow=none;segment=10;curved=1;entryX=0.5;entryY=0;entryDx=0;entryDy=0;exitX=0.5;exitY=1;exitDx=0;exitDy=0;" parent="1" source="nmE42dB6QyYmcY3QH0II-4" target="nmE42dB6QyYmcY3QH0II-19" edge="1">
                    <mxGeometry relative="1" as="geometry">
                        <mxPoint x="893.5" y="295" as="sourcePoint"/>
                        <mxPoint x="1088.5" y="365" as="targetPoint"/>
                    </mxGeometry>
                </mxCell>
                <mxCell id="nmE42dB6QyYmcY3QH0II-28" value="" style="edgeStyle=entityRelationEdgeStyle;startArrow=none;endArrow=none;segment=10;curved=1;entryX=0.5;entryY=0;entryDx=0;entryDy=0;exitX=0.5;exitY=1;exitDx=0;exitDy=0;" parent="1" source="nmE42dB6QyYmcY3QH0II-4" target="nmE42dB6QyYmcY3QH0II-20" edge="1">
                    <mxGeometry relative="1" as="geometry">
                        <mxPoint x="793.5" y="235" as="sourcePoint"/>
                        <mxPoint x="1173.5" y="305" as="targetPoint"/>
                    </mxGeometry>
                </mxCell>
                <mxCell id="nmE42dB6QyYmcY3QH0II-29" value="DNS" style="whiteSpace=wrap;html=1;rounded=1;arcSize=50;align=center;verticalAlign=middle;strokeWidth=1;autosize=1;spacing=4;treeFolding=1;treeMoving=1;newEdgeStyle={&quot;edgeStyle&quot;:&quot;entityRelationEdgeStyle&quot;,&quot;startArrow&quot;:&quot;none&quot;,&quot;endArrow&quot;:&quot;none&quot;,&quot;segment&quot;:10,&quot;curved&quot;:1};" parent="1" vertex="1">
                    <mxGeometry x="453.5" y="525" width="70" height="30" as="geometry"/>
                </mxCell>
                <mxCell id="nmE42dB6QyYmcY3QH0II-30" value="TCP" style="whiteSpace=wrap;html=1;rounded=1;arcSize=50;align=center;verticalAlign=middle;strokeWidth=1;autosize=1;spacing=4;treeFolding=1;treeMoving=1;newEdgeStyle={&quot;edgeStyle&quot;:&quot;entityRelationEdgeStyle&quot;,&quot;startArrow&quot;:&quot;none&quot;,&quot;endArrow&quot;:&quot;none&quot;,&quot;segment&quot;:10,&quot;curved&quot;:1};" parent="1" vertex="1">
                    <mxGeometry x="543.5" y="525" width="60" height="30" as="geometry"/>
                </mxCell>
                <mxCell id="nmE42dB6QyYmcY3QH0II-31" value="TLS" style="whiteSpace=wrap;html=1;rounded=1;arcSize=50;align=center;verticalAlign=middle;strokeWidth=1;autosize=1;spacing=4;treeFolding=1;treeMoving=1;newEdgeStyle={&quot;edgeStyle&quot;:&quot;entityRelationEdgeStyle&quot;,&quot;startArrow&quot;:&quot;none&quot;,&quot;endArrow&quot;:&quot;none&quot;,&quot;segment&quot;:10,&quot;curved&quot;:1};" parent="1" vertex="1">
                    <mxGeometry x="623.5" y="525" width="60" height="30" as="geometry"/>
                </mxCell>
                <mxCell id="nmE42dB6QyYmcY3QH0II-32" value="HTTP" style="whiteSpace=wrap;html=1;rounded=1;arcSize=50;align=center;verticalAlign=middle;strokeWidth=1;autosize=1;spacing=4;treeFolding=1;treeMoving=1;newEdgeStyle={&quot;edgeStyle&quot;:&quot;entityRelationEdgeStyle&quot;,&quot;startArrow&quot;:&quot;none&quot;,&quot;endArrow&quot;:&quot;none&quot;,&quot;segment&quot;:10,&quot;curved&quot;:1};" parent="1" vertex="1">
                    <mxGeometry x="703.5" y="525" width="70" height="30" as="geometry"/>
                </mxCell>
                <mxCell id="nmE42dB6QyYmcY3QH0II-33" value="网速（传输大小/传输时间）" style="whiteSpace=wrap;html=1;rounded=1;arcSize=50;align=center;verticalAlign=middle;strokeWidth=1;autosize=1;spacing=4;treeFolding=1;treeMoving=1;newEdgeStyle={&quot;edgeStyle&quot;:&quot;entityRelationEdgeStyle&quot;,&quot;startArrow&quot;:&quot;none&quot;,&quot;endArrow&quot;:&quot;none&quot;,&quot;segment&quot;:10,&quot;curved&quot;:1};" parent="1" vertex="1">
                    <mxGeometry x="801" y="605" width="190" height="30" as="geometry"/>
                </mxCell>
                <mxCell id="nmE42dB6QyYmcY3QH0II-35" value="" style="edgeStyle=entityRelationEdgeStyle;startArrow=none;endArrow=none;segment=10;curved=1;exitX=0.5;exitY=0;exitDx=0;exitDy=0;entryX=0.5;entryY=1;entryDx=0;entryDy=0;" parent="1" source="nmE42dB6QyYmcY3QH0II-30" target="nmE42dB6QyYmcY3QH0II-15" edge="1">
                    <mxGeometry relative="1" as="geometry">
                        <mxPoint x="628.5" y="525" as="sourcePoint"/>
                        <mxPoint x="748.5" y="495" as="targetPoint"/>
                    </mxGeometry>
                </mxCell>
                <mxCell id="nmE42dB6QyYmcY3QH0II-36" value="" style="edgeStyle=entityRelationEdgeStyle;startArrow=none;endArrow=none;segment=10;curved=1;entryX=0.5;entryY=0;entryDx=0;entryDy=0;exitX=0.5;exitY=1;exitDx=0;exitDy=0;" parent="1" source="nmE42dB6QyYmcY3QH0II-15" target="nmE42dB6QyYmcY3QH0II-31" edge="1">
                    <mxGeometry relative="1" as="geometry">
                        <mxPoint x="628.5" y="525" as="sourcePoint"/>
                        <mxPoint x="808.5" y="715" as="targetPoint"/>
                    </mxGeometry>
                </mxCell>
                <mxCell id="nmE42dB6QyYmcY3QH0II-37" value="" style="edgeStyle=entityRelationEdgeStyle;startArrow=none;endArrow=none;segment=10;curved=1;entryX=0.5;entryY=0;entryDx=0;entryDy=0;exitX=0.5;exitY=1;exitDx=0;exitDy=0;" parent="1" source="nmE42dB6QyYmcY3QH0II-15" target="nmE42dB6QyYmcY3QH0II-32" edge="1">
                    <mxGeometry relative="1" as="geometry">
                        <mxPoint x="628.5" y="525" as="sourcePoint"/>
                        <mxPoint x="888.5" y="695" as="targetPoint"/>
                    </mxGeometry>
                </mxCell>
                <mxCell id="nmE42dB6QyYmcY3QH0II-38" value="" style="edgeStyle=entityRelationEdgeStyle;startArrow=none;endArrow=none;segment=10;curved=1;entryX=0.5;entryY=0;entryDx=0;entryDy=0;exitX=0.5;exitY=1;exitDx=0;exitDy=0;" parent="1" source="nmE42dB6QyYmcY3QH0II-32" target="nmE42dB6QyYmcY3QH0II-33" edge="1">
                    <mxGeometry relative="1" as="geometry">
                        <mxPoint x="518.5" y="525" as="sourcePoint"/>
                        <mxPoint x="988.5" y="715" as="targetPoint"/>
                    </mxGeometry>
                </mxCell>
                <mxCell id="nmE42dB6QyYmcY3QH0II-39" value="DNS缓存命中率" style="whiteSpace=wrap;html=1;rounded=1;arcSize=50;align=center;verticalAlign=middle;strokeWidth=1;autosize=1;spacing=4;treeFolding=1;treeMoving=1;newEdgeStyle={&quot;edgeStyle&quot;:&quot;entityRelationEdgeStyle&quot;,&quot;startArrow&quot;:&quot;none&quot;,&quot;endArrow&quot;:&quot;none&quot;,&quot;segment&quot;:10,&quot;curved&quot;:1};" parent="1" vertex="1">
                    <mxGeometry x="328.5" y="605" width="130" height="30" as="geometry"/>
                </mxCell>
                <mxCell id="nmE42dB6QyYmcY3QH0II-40" value="TCP链接复用率" style="whiteSpace=wrap;html=1;rounded=1;arcSize=50;align=center;verticalAlign=middle;strokeWidth=1;autosize=1;spacing=4;treeFolding=1;treeMoving=1;newEdgeStyle={&quot;edgeStyle&quot;:&quot;entityRelationEdgeStyle&quot;,&quot;startArrow&quot;:&quot;none&quot;,&quot;endArrow&quot;:&quot;none&quot;,&quot;segment&quot;:10,&quot;curved&quot;:1};" parent="1" vertex="1">
                    <mxGeometry x="488.5" y="605" width="120" height="30" as="geometry"/>
                </mxCell>
                <mxCell id="nmE42dB6QyYmcY3QH0II-41" value="TLS链接复用率" style="whiteSpace=wrap;html=1;rounded=1;arcSize=50;align=center;verticalAlign=middle;strokeWidth=1;autosize=1;spacing=4;treeFolding=1;treeMoving=1;newEdgeStyle={&quot;edgeStyle&quot;:&quot;entityRelationEdgeStyle&quot;,&quot;startArrow&quot;:&quot;none&quot;,&quot;endArrow&quot;:&quot;none&quot;,&quot;segment&quot;:10,&quot;curved&quot;:1};" parent="1" vertex="1">
                    <mxGeometry x="648.5" y="605" width="120" height="30" as="geometry"/>
                </mxCell>
                <mxCell id="nmE42dB6QyYmcY3QH0II-42" value="" style="edgeStyle=entityRelationEdgeStyle;startArrow=none;endArrow=none;segment=10;curved=1;entryX=0.5;entryY=0;entryDx=0;entryDy=0;exitX=0.5;exitY=1;exitDx=0;exitDy=0;" parent="1" source="nmE42dB6QyYmcY3QH0II-31" target="nmE42dB6QyYmcY3QH0II-41" edge="1">
                    <mxGeometry relative="1" as="geometry">
                        <mxPoint x="568.5" y="705" as="sourcePoint"/>
                        <mxPoint x="703.5" y="755" as="targetPoint"/>
                    </mxGeometry>
                </mxCell>
                <mxCell id="nmE42dB6QyYmcY3QH0II-45" value="漏斗转化率?" style="whiteSpace=wrap;html=1;rounded=1;arcSize=50;align=center;verticalAlign=middle;strokeWidth=1;autosize=1;spacing=4;treeFolding=1;treeMoving=1;newEdgeStyle={&quot;edgeStyle&quot;:&quot;entityRelationEdgeStyle&quot;,&quot;startArrow&quot;:&quot;none&quot;,&quot;endArrow&quot;:&quot;none&quot;,&quot;segment&quot;:10,&quot;curved&quot;:1};" parent="1" vertex="1">
                    <mxGeometry x="875" y="525" width="110" height="30" as="geometry"/>
                </mxCell>
                <mxCell id="nmE42dB6QyYmcY3QH0II-46" value="" style="edgeStyle=entityRelationEdgeStyle;startArrow=none;endArrow=none;segment=10;curved=1;entryX=0.5;entryY=0;entryDx=0;entryDy=0;exitX=0.5;exitY=1;exitDx=0;exitDy=0;" parent="1" source="nmE42dB6QyYmcY3QH0II-17" target="nmE42dB6QyYmcY3QH0II-45" edge="1">
                    <mxGeometry relative="1" as="geometry">
                        <mxPoint x="908.5" y="510" as="sourcePoint"/>
                        <mxPoint x="1103.5" y="580" as="targetPoint"/>
                    </mxGeometry>
                </mxCell>
                <mxCell id="nmE42dB6QyYmcY3QH0II-47" value="" style="edgeStyle=entityRelationEdgeStyle;startArrow=none;endArrow=none;segment=10;curved=1;entryX=0.5;entryY=1;entryDx=0;entryDy=0;exitX=0.5;exitY=0;exitDx=0;exitDy=0;" parent="1" source="nmE42dB6QyYmcY3QH0II-45" target="nmE42dB6QyYmcY3QH0II-19" edge="1">
                    <mxGeometry relative="1" as="geometry">
                        <mxPoint x="1080" y="640" as="sourcePoint"/>
                        <mxPoint x="1093.5" y="575" as="targetPoint"/>
                    </mxGeometry>
                </mxCell>
                <mxCell id="nmE42dB6QyYmcY3QH0II-49" value="漏斗转化率?" style="whiteSpace=wrap;html=1;rounded=1;arcSize=50;align=center;verticalAlign=middle;strokeWidth=1;autosize=1;spacing=4;treeFolding=1;treeMoving=1;newEdgeStyle={&quot;edgeStyle&quot;:&quot;entityRelationEdgeStyle&quot;,&quot;startArrow&quot;:&quot;none&quot;,&quot;endArrow&quot;:&quot;none&quot;,&quot;segment&quot;:10,&quot;curved&quot;:1};" parent="1" vertex="1">
                    <mxGeometry x="293.5" y="485" width="110" height="30" as="geometry"/>
                </mxCell>
                <mxCell id="nmE42dB6QyYmcY3QH0II-50" value="" style="edgeStyle=entityRelationEdgeStyle;startArrow=none;endArrow=none;segment=10;curved=1;entryX=0.5;entryY=0;entryDx=0;entryDy=0;exitX=0.5;exitY=1;exitDx=0;exitDy=0;" parent="1" source="nmE42dB6QyYmcY3QH0II-7" target="nmE42dB6QyYmcY3QH0II-49" edge="1">
                    <mxGeometry relative="1" as="geometry">
                        <mxPoint x="398.5" y="525" as="sourcePoint"/>
                        <mxPoint x="368.5" y="595" as="targetPoint"/>
                    </mxGeometry>
                </mxCell>
                <mxCell id="nmE42dB6QyYmcY3QH0II-51" value="" style="edgeStyle=entityRelationEdgeStyle;startArrow=none;endArrow=none;segment=10;curved=1;entryX=0.5;entryY=0;entryDx=0;entryDy=0;exitX=0.453;exitY=1;exitDx=0;exitDy=0;exitPerimeter=0;" parent="1" source="nmE42dB6QyYmcY3QH0II-8" target="nmE42dB6QyYmcY3QH0II-49" edge="1">
                    <mxGeometry relative="1" as="geometry">
                        <mxPoint x="383.5" y="535" as="sourcePoint"/>
                        <mxPoint x="463.5" y="625" as="targetPoint"/>
                    </mxGeometry>
                </mxCell>
                <mxCell id="nmE42dB6QyYmcY3QH0II-98" value="App 信息" style="ellipse;whiteSpace=wrap;html=1;align=center;newEdgeStyle={&quot;edgeStyle&quot;:&quot;entityRelationEdgeStyle&quot;,&quot;startArrow&quot;:&quot;none&quot;,&quot;endArrow&quot;:&quot;none&quot;,&quot;segment&quot;:10,&quot;curved&quot;:1};treeFolding=1;treeMoving=1;" parent="1" vertex="1">
                    <mxGeometry x="460" y="1459.71" width="100" height="40" as="geometry"/>
                </mxCell>
                <mxCell id="nmE42dB6QyYmcY3QH0II-99" value="App ID" style="whiteSpace=wrap;html=1;shape=partialRectangle;top=0;left=0;bottom=1;right=0;points=[[0,1],[1,1]];fillColor=none;align=left;verticalAlign=bottom;routingCenterY=0.5;snapToPoint=1;recursiveResize=0;autosize=1;treeFolding=1;treeMoving=1;newEdgeStyle={&quot;edgeStyle&quot;:&quot;entityRelationEdgeStyle&quot;,&quot;startArrow&quot;:&quot;none&quot;,&quot;endArrow&quot;:&quot;none&quot;,&quot;segment&quot;:10,&quot;curved&quot;:1};" parent="1" vertex="1">
                    <mxGeometry x="820" y="1280" width="70" height="20" as="geometry"/>
                </mxCell>
                <mxCell id="nmE42dB6QyYmcY3QH0II-100" value="" style="edgeStyle=entityRelationEdgeStyle;startArrow=none;endArrow=none;segment=10;curved=1;exitX=1;exitY=0.5;exitDx=0;exitDy=0;entryX=0;entryY=1;entryDx=0;entryDy=0;" parent="1" source="tOMAKgP3rDthFPzLRQrB-1" target="nmE42dB6QyYmcY3QH0II-99" edge="1">
                    <mxGeometry relative="1" as="geometry">
                        <mxPoint x="730" y="1464.71" as="sourcePoint"/>
                        <mxPoint x="819.5714285714289" y="1299.9957142857145" as="targetPoint"/>
                    </mxGeometry>
                </mxCell>
                <mxCell id="nmE42dB6QyYmcY3QH0II-102" value="技术平台" style="whiteSpace=wrap;html=1;shape=partialRectangle;top=0;left=0;bottom=1;right=0;points=[[0,1],[1,1]];fillColor=none;align=left;verticalAlign=bottom;routingCenterY=0.5;snapToPoint=1;recursiveResize=0;autosize=1;treeFolding=1;treeMoving=1;newEdgeStyle={&quot;edgeStyle&quot;:&quot;entityRelationEdgeStyle&quot;,&quot;startArrow&quot;:&quot;none&quot;,&quot;endArrow&quot;:&quot;none&quot;,&quot;segment&quot;:10,&quot;curved&quot;:1};" parent="1" vertex="1">
                    <mxGeometry x="820" y="1311.71" width="70" height="20" as="geometry"/>
                </mxCell>
                <mxCell id="nmE42dB6QyYmcY3QH0II-103" value="" style="edgeStyle=entityRelationEdgeStyle;startArrow=none;endArrow=none;segment=10;curved=1;exitX=1;exitY=0.5;exitDx=0;exitDy=0;" parent="1" source="tOMAKgP3rDthFPzLRQrB-1" target="nmE42dB6QyYmcY3QH0II-102" edge="1">
                    <mxGeometry relative="1" as="geometry">
                        <mxPoint x="720" y="1524.71" as="sourcePoint"/>
                    </mxGeometry>
                </mxCell>
                <mxCell id="nmE42dB6QyYmcY3QH0II-105" value="" style="edgeStyle=entityRelationEdgeStyle;startArrow=none;endArrow=none;segment=10;curved=1;entryX=0;entryY=1;entryDx=0;entryDy=0;exitX=1;exitY=0.5;exitDx=0;exitDy=0;" parent="1" source="tOMAKgP3rDthFPzLRQrB-1" target="nmE42dB6QyYmcY3QH0II-109" edge="1">
                    <mxGeometry relative="1" as="geometry">
                        <mxPoint x="700" y="1454.71" as="sourcePoint"/>
                        <mxPoint x="750" y="1459.71" as="targetPoint"/>
                    </mxGeometry>
                </mxCell>
                <mxCell id="nmE42dB6QyYmcY3QH0II-107" value="App Commit ID?" style="whiteSpace=wrap;html=1;shape=partialRectangle;top=0;left=0;bottom=1;right=0;points=[[0,1],[1,1]];fillColor=none;align=left;verticalAlign=bottom;routingCenterY=0.5;snapToPoint=1;recursiveResize=0;autosize=1;treeFolding=1;treeMoving=1;newEdgeStyle={&quot;edgeStyle&quot;:&quot;entityRelationEdgeStyle&quot;,&quot;startArrow&quot;:&quot;none&quot;,&quot;endArrow&quot;:&quot;none&quot;,&quot;segment&quot;:10,&quot;curved&quot;:1};" parent="1" vertex="1">
                    <mxGeometry x="820" y="1374.71" width="120" height="20" as="geometry"/>
                </mxCell>
                <mxCell id="nmE42dB6QyYmcY3QH0II-108" value="" style="edgeStyle=entityRelationEdgeStyle;startArrow=none;endArrow=none;segment=10;curved=1;entryX=0;entryY=1;entryDx=0;entryDy=0;exitX=1;exitY=0.5;exitDx=0;exitDy=0;" parent="1" source="tOMAKgP3rDthFPzLRQrB-1" target="nmE42dB6QyYmcY3QH0II-107" edge="1">
                    <mxGeometry relative="1" as="geometry">
                        <mxPoint x="690" y="1484.71" as="sourcePoint"/>
                        <mxPoint x="765" y="1444.71" as="targetPoint"/>
                    </mxGeometry>
                </mxCell>
                <mxCell id="nmE42dB6QyYmcY3QH0II-109" value="App 版本?" style="whiteSpace=wrap;html=1;shape=partialRectangle;top=0;left=0;bottom=1;right=0;points=[[0,1],[1,1]];fillColor=none;align=left;verticalAlign=bottom;routingCenterY=0.5;snapToPoint=1;recursiveResize=0;autosize=1;treeFolding=1;treeMoving=1;newEdgeStyle={&quot;edgeStyle&quot;:&quot;entityRelationEdgeStyle&quot;,&quot;startArrow&quot;:&quot;none&quot;,&quot;endArrow&quot;:&quot;none&quot;,&quot;segment&quot;:10,&quot;curved&quot;:1};" parent="1" vertex="1">
                    <mxGeometry x="820" y="1344.71" width="90" height="20" as="geometry"/>
                </mxCell>
                <mxCell id="nmE42dB6QyYmcY3QH0II-111" value="" style="edgeStyle=entityRelationEdgeStyle;startArrow=none;endArrow=none;segment=10;curved=1;exitX=1;exitY=0.5;exitDx=0;exitDy=0;entryX=0;entryY=1;entryDx=0;entryDy=0;" parent="1" source="tOMAKgP3rDthFPzLRQrB-1" target="nmE42dB6QyYmcY3QH0II-113" edge="1">
                    <mxGeometry relative="1" as="geometry">
                        <mxPoint x="700" y="1454.71" as="sourcePoint"/>
                        <mxPoint x="750" y="1474.71" as="targetPoint"/>
                    </mxGeometry>
                </mxCell>
                <mxCell id="nmE42dB6QyYmcY3QH0II-113" value="App 构建时间?" style="whiteSpace=wrap;html=1;shape=partialRectangle;top=0;left=0;bottom=1;right=0;points=[[0,1],[1,1]];fillColor=none;align=left;verticalAlign=bottom;routingCenterY=0.5;snapToPoint=1;recursiveResize=0;autosize=1;treeFolding=1;treeMoving=1;newEdgeStyle={&quot;edgeStyle&quot;:&quot;entityRelationEdgeStyle&quot;,&quot;startArrow&quot;:&quot;none&quot;,&quot;endArrow&quot;:&quot;none&quot;,&quot;segment&quot;:10,&quot;curved&quot;:1};" parent="1" vertex="1">
                    <mxGeometry x="820" y="1409.71" width="110" height="20" as="geometry"/>
                </mxCell>
                <mxCell id="nmE42dB6QyYmcY3QH0II-116" value="" style="edgeStyle=entityRelationEdgeStyle;startArrow=none;endArrow=none;segment=10;curved=1;exitX=1;exitY=0.5;exitDx=0;exitDy=0;entryX=0;entryY=1;entryDx=0;entryDy=0;" parent="1" source="tOMAKgP3rDthFPzLRQrB-3" target="nmE42dB6QyYmcY3QH0II-119" edge="1">
                    <mxGeometry relative="1" as="geometry">
                        <mxPoint x="690" y="1504.71" as="sourcePoint"/>
                        <mxPoint x="740" y="1494.71" as="targetPoint"/>
                    </mxGeometry>
                </mxCell>
                <mxCell id="nmE42dB6QyYmcY3QH0II-117" value="页面地址" style="whiteSpace=wrap;html=1;shape=partialRectangle;top=0;left=0;bottom=1;right=0;points=[[0,1],[1,1]];fillColor=none;align=center;verticalAlign=bottom;routingCenterY=0.5;snapToPoint=1;recursiveResize=0;autosize=1;treeFolding=1;treeMoving=1;newEdgeStyle={&quot;edgeStyle&quot;:&quot;entityRelationEdgeStyle&quot;,&quot;startArrow&quot;:&quot;none&quot;,&quot;endArrow&quot;:&quot;none&quot;,&quot;segment&quot;:10,&quot;curved&quot;:1};" parent="1" vertex="1">
                    <mxGeometry x="860" y="1534.71" width="65" height="20" as="geometry"/>
                </mxCell>
                <mxCell id="nmE42dB6QyYmcY3QH0II-118" value="" style="edgeStyle=entityRelationEdgeStyle;startArrow=none;endArrow=none;segment=10;curved=1;exitX=1;exitY=0.5;exitDx=0;exitDy=0;entryX=0;entryY=1;entryDx=0;entryDy=0;" parent="1" source="tOMAKgP3rDthFPzLRQrB-18" target="nmE42dB6QyYmcY3QH0II-117" edge="1">
                    <mxGeometry relative="1" as="geometry">
                        <mxPoint x="690" y="1469.71" as="sourcePoint"/>
                        <mxPoint x="750" y="1559.71" as="targetPoint"/>
                    </mxGeometry>
                </mxCell>
                <mxCell id="nmE42dB6QyYmcY3QH0II-119" value="实际路由" style="whiteSpace=wrap;html=1;shape=partialRectangle;top=0;left=0;bottom=1;right=0;points=[[0,1],[1,1]];fillColor=none;align=left;verticalAlign=bottom;routingCenterY=0.5;snapToPoint=1;recursiveResize=0;autosize=1;treeFolding=1;treeMoving=1;newEdgeStyle={&quot;edgeStyle&quot;:&quot;entityRelationEdgeStyle&quot;,&quot;startArrow&quot;:&quot;none&quot;,&quot;endArrow&quot;:&quot;none&quot;,&quot;segment&quot;:10,&quot;curved&quot;:1};" parent="1" vertex="1">
                    <mxGeometry x="730" y="1439.71" width="60" height="20" as="geometry"/>
                </mxCell>
                <mxCell id="nmE42dB6QyYmcY3QH0II-121" value="路由 ID?" style="whiteSpace=wrap;html=1;shape=partialRectangle;top=0;left=0;bottom=1;right=0;points=[[0,1],[1,1]];fillColor=none;align=left;verticalAlign=bottom;routingCenterY=0.5;snapToPoint=1;recursiveResize=0;autosize=1;treeFolding=1;treeMoving=1;newEdgeStyle={&quot;edgeStyle&quot;:&quot;entityRelationEdgeStyle&quot;,&quot;startArrow&quot;:&quot;none&quot;,&quot;endArrow&quot;:&quot;none&quot;,&quot;segment&quot;:10,&quot;curved&quot;:1};" parent="1" vertex="1">
                    <mxGeometry x="730" y="1489.71" width="80" height="20" as="geometry"/>
                </mxCell>
                <mxCell id="nmE42dB6QyYmcY3QH0II-123" value="" style="edgeStyle=entityRelationEdgeStyle;startArrow=none;endArrow=none;segment=10;curved=1;exitX=1;exitY=0.5;exitDx=0;exitDy=0;entryX=0;entryY=1;entryDx=0;entryDy=0;" parent="1" source="tOMAKgP3rDthFPzLRQrB-3" target="nmE42dB6QyYmcY3QH0II-121" edge="1">
                    <mxGeometry relative="1" as="geometry">
                        <mxPoint x="700" y="1454.71" as="sourcePoint"/>
                        <mxPoint x="760" y="1504.71" as="targetPoint"/>
                    </mxGeometry>
                </mxCell>
                <mxCell id="nmE42dB6QyYmcY3QH0II-124" value="环境信息" style="ellipse;whiteSpace=wrap;html=1;align=center;newEdgeStyle={&quot;edgeStyle&quot;:&quot;entityRelationEdgeStyle&quot;,&quot;startArrow&quot;:&quot;none&quot;,&quot;endArrow&quot;:&quot;none&quot;,&quot;segment&quot;:10,&quot;curved&quot;:1};treeFolding=1;treeMoving=1;" parent="1" vertex="1">
                    <mxGeometry x="460" y="1055" width="100" height="40" as="geometry"/>
                </mxCell>
                <mxCell id="nmE42dB6QyYmcY3QH0II-125" value="设备 ID" style="whiteSpace=wrap;html=1;shape=partialRectangle;top=0;left=0;bottom=1;right=0;points=[[0,1],[1,1]];fillColor=none;align=left;verticalAlign=bottom;routingCenterY=0.5;snapToPoint=1;recursiveResize=0;autosize=1;treeFolding=1;treeMoving=1;newEdgeStyle={&quot;edgeStyle&quot;:&quot;entityRelationEdgeStyle&quot;,&quot;startArrow&quot;:&quot;none&quot;,&quot;endArrow&quot;:&quot;none&quot;,&quot;segment&quot;:10,&quot;curved&quot;:1};" parent="1" vertex="1">
                    <mxGeometry x="1025" y="850" width="80" height="20" as="geometry"/>
                </mxCell>
                <mxCell id="nmE42dB6QyYmcY3QH0II-126" value="" style="edgeStyle=entityRelationEdgeStyle;startArrow=none;endArrow=none;segment=10;curved=1;exitX=1;exitY=0.5;exitDx=0;exitDy=0;" parent="1" source="tOMAKgP3rDthFPzLRQrB-29" target="nmE42dB6QyYmcY3QH0II-125" edge="1">
                    <mxGeometry relative="1" as="geometry">
                        <mxPoint x="885" y="1120" as="sourcePoint"/>
                    </mxGeometry>
                </mxCell>
                <mxCell id="nmE42dB6QyYmcY3QH0II-127" value="操作系统" style="whiteSpace=wrap;html=1;shape=partialRectangle;top=0;left=0;bottom=1;right=0;points=[[0,1],[1,1]];fillColor=none;align=left;verticalAlign=bottom;routingCenterY=0.5;snapToPoint=1;recursiveResize=0;autosize=1;treeFolding=1;treeMoving=1;newEdgeStyle={&quot;edgeStyle&quot;:&quot;entityRelationEdgeStyle&quot;,&quot;startArrow&quot;:&quot;none&quot;,&quot;endArrow&quot;:&quot;none&quot;,&quot;segment&quot;:10,&quot;curved&quot;:1};" parent="1" vertex="1" collapsed="1">
                    <mxGeometry x="1025" y="882" width="80" height="20" as="geometry"/>
                </mxCell>
                <mxCell id="nmE42dB6QyYmcY3QH0II-128" value="" style="edgeStyle=entityRelationEdgeStyle;startArrow=none;endArrow=none;segment=10;curved=1;exitX=1;exitY=0.5;exitDx=0;exitDy=0;" parent="1" source="tOMAKgP3rDthFPzLRQrB-29" target="nmE42dB6QyYmcY3QH0II-127" edge="1">
                    <mxGeometry relative="1" as="geometry">
                        <mxPoint x="875" y="1180" as="sourcePoint"/>
                    </mxGeometry>
                </mxCell>
                <mxCell id="nmE42dB6QyYmcY3QH0II-129" value="" style="edgeStyle=entityRelationEdgeStyle;startArrow=none;endArrow=none;segment=10;curved=1;entryX=0;entryY=1;entryDx=0;entryDy=0;exitX=1;exitY=0.5;exitDx=0;exitDy=0;" parent="1" source="tOMAKgP3rDthFPzLRQrB-29" target="nmE42dB6QyYmcY3QH0II-132" edge="1">
                    <mxGeometry relative="1" as="geometry">
                        <mxPoint x="855" y="1110" as="sourcePoint"/>
                        <mxPoint x="905" y="1115" as="targetPoint"/>
                    </mxGeometry>
                </mxCell>
                <mxCell id="nmE42dB6QyYmcY3QH0II-130" value="设备型号" style="whiteSpace=wrap;html=1;shape=partialRectangle;top=0;left=0;bottom=1;right=0;points=[[0,1],[1,1]];fillColor=none;align=left;verticalAlign=bottom;routingCenterY=0.5;snapToPoint=1;recursiveResize=0;autosize=1;treeFolding=1;treeMoving=1;newEdgeStyle={&quot;edgeStyle&quot;:&quot;entityRelationEdgeStyle&quot;,&quot;startArrow&quot;:&quot;none&quot;,&quot;endArrow&quot;:&quot;none&quot;,&quot;segment&quot;:10,&quot;curved&quot;:1};" parent="1" vertex="1" collapsed="1">
                    <mxGeometry x="1025" y="940" width="80" height="20" as="geometry"/>
                </mxCell>
                <mxCell id="nmE42dB6QyYmcY3QH0II-131" value="" style="edgeStyle=entityRelationEdgeStyle;startArrow=none;endArrow=none;segment=10;curved=1;entryX=0;entryY=1;entryDx=0;entryDy=0;exitX=1;exitY=0.5;exitDx=0;exitDy=0;" parent="1" source="tOMAKgP3rDthFPzLRQrB-29" target="nmE42dB6QyYmcY3QH0II-130" edge="1">
                    <mxGeometry relative="1" as="geometry">
                        <mxPoint x="845" y="1140" as="sourcePoint"/>
                        <mxPoint x="920" y="1100" as="targetPoint"/>
                    </mxGeometry>
                </mxCell>
                <mxCell id="nmE42dB6QyYmcY3QH0II-132" value="操作系统版本" style="whiteSpace=wrap;html=1;shape=partialRectangle;top=0;left=0;bottom=1;right=0;points=[[0,1],[1,1]];fillColor=none;align=left;verticalAlign=bottom;routingCenterY=0.5;snapToPoint=1;recursiveResize=0;autosize=1;treeFolding=1;treeMoving=1;newEdgeStyle={&quot;edgeStyle&quot;:&quot;entityRelationEdgeStyle&quot;,&quot;startArrow&quot;:&quot;none&quot;,&quot;endArrow&quot;:&quot;none&quot;,&quot;segment&quot;:10,&quot;curved&quot;:1};" parent="1" vertex="1">
                    <mxGeometry x="1025" y="912" width="80" height="20" as="geometry"/>
                </mxCell>
                <mxCell id="nmE42dB6QyYmcY3QH0II-133" value="" style="edgeStyle=entityRelationEdgeStyle;startArrow=none;endArrow=none;segment=10;curved=1;exitX=1;exitY=0.5;exitDx=0;exitDy=0;entryX=0;entryY=1;entryDx=0;entryDy=0;" parent="1" source="tOMAKgP3rDthFPzLRQrB-31" target="nmE42dB6QyYmcY3QH0II-134" edge="1">
                    <mxGeometry relative="1" as="geometry">
                        <mxPoint x="706" y="1078" as="sourcePoint"/>
                        <mxPoint x="756" y="1098" as="targetPoint"/>
                    </mxGeometry>
                </mxCell>
                <mxCell id="nmE42dB6QyYmcY3QH0II-134" value="IP?" style="whiteSpace=wrap;html=1;shape=partialRectangle;top=0;left=0;bottom=1;right=0;points=[[0,1],[1,1]];fillColor=none;align=left;verticalAlign=bottom;routingCenterY=0.5;snapToPoint=1;recursiveResize=0;autosize=1;treeFolding=1;treeMoving=1;newEdgeStyle={&quot;edgeStyle&quot;:&quot;entityRelationEdgeStyle&quot;,&quot;startArrow&quot;:&quot;none&quot;,&quot;endArrow&quot;:&quot;none&quot;,&quot;segment&quot;:10,&quot;curved&quot;:1};" parent="1" vertex="1">
                    <mxGeometry x="1010" y="973" width="50" height="20" as="geometry"/>
                </mxCell>
                <mxCell id="nmE42dB6QyYmcY3QH0II-135" value="" style="edgeStyle=entityRelationEdgeStyle;startArrow=none;endArrow=none;segment=10;curved=1;exitX=1;exitY=0.5;exitDx=0;exitDy=0;entryX=0;entryY=1;entryDx=0;entryDy=0;" parent="1" source="tOMAKgP3rDthFPzLRQrB-31" target="nmE42dB6QyYmcY3QH0II-138" edge="1">
                    <mxGeometry relative="1" as="geometry">
                        <mxPoint x="696" y="1128" as="sourcePoint"/>
                        <mxPoint x="746" y="1118" as="targetPoint"/>
                    </mxGeometry>
                </mxCell>
                <mxCell id="nmE42dB6QyYmcY3QH0II-136" value="浏览器版本" style="whiteSpace=wrap;html=1;shape=partialRectangle;top=0;left=0;bottom=1;right=0;points=[[0,1],[1,1]];fillColor=none;align=left;verticalAlign=bottom;routingCenterY=0.5;snapToPoint=1;recursiveResize=0;autosize=1;treeFolding=1;treeMoving=1;newEdgeStyle={&quot;edgeStyle&quot;:&quot;entityRelationEdgeStyle&quot;,&quot;startArrow&quot;:&quot;none&quot;,&quot;endArrow&quot;:&quot;none&quot;,&quot;segment&quot;:10,&quot;curved&quot;:1};" parent="1" vertex="1">
                    <mxGeometry x="970" y="1053" width="70" height="20" as="geometry"/>
                </mxCell>
                <mxCell id="nmE42dB6QyYmcY3QH0II-137" value="" style="edgeStyle=entityRelationEdgeStyle;startArrow=none;endArrow=none;segment=10;curved=1;entryX=0;entryY=1;entryDx=0;entryDy=0;exitX=1;exitY=0.5;exitDx=0;exitDy=0;" parent="1" source="tOMAKgP3rDthFPzLRQrB-22" target="nmE42dB6QyYmcY3QH0II-136" edge="1">
                    <mxGeometry relative="1" as="geometry">
                        <mxPoint x="1051" y="1087" as="sourcePoint"/>
                        <mxPoint x="1051" y="927" as="targetPoint"/>
                    </mxGeometry>
                </mxCell>
                <mxCell id="nmE42dB6QyYmcY3QH0II-138" value="网络类型?" style="whiteSpace=wrap;html=1;shape=partialRectangle;top=0;left=0;bottom=1;right=0;points=[[0,1],[1,1]];fillColor=none;align=left;verticalAlign=bottom;routingCenterY=0.5;snapToPoint=1;recursiveResize=0;autosize=1;treeFolding=1;treeMoving=1;newEdgeStyle={&quot;edgeStyle&quot;:&quot;entityRelationEdgeStyle&quot;,&quot;startArrow&quot;:&quot;none&quot;,&quot;endArrow&quot;:&quot;none&quot;,&quot;segment&quot;:10,&quot;curved&quot;:1};" parent="1" vertex="1" collapsed="1">
                    <mxGeometry x="1070" y="993" width="90" height="20" as="geometry"/>
                </mxCell>
                <mxCell id="nmE42dB6QyYmcY3QH0II-139" value="浏览器名称" style="whiteSpace=wrap;html=1;shape=partialRectangle;top=0;left=0;bottom=1;right=0;points=[[0,1],[1,1]];fillColor=none;align=left;verticalAlign=bottom;routingCenterY=0.5;snapToPoint=1;recursiveResize=0;autosize=1;treeFolding=1;treeMoving=1;newEdgeStyle={&quot;edgeStyle&quot;:&quot;entityRelationEdgeStyle&quot;,&quot;startArrow&quot;:&quot;none&quot;,&quot;endArrow&quot;:&quot;none&quot;,&quot;segment&quot;:10,&quot;curved&quot;:1};" parent="1" vertex="1">
                    <mxGeometry x="970" y="1025" width="70" height="18" as="geometry"/>
                </mxCell>
                <mxCell id="nmE42dB6QyYmcY3QH0II-140" value="" style="edgeStyle=entityRelationEdgeStyle;startArrow=none;endArrow=none;segment=10;curved=1;exitX=1;exitY=0.5;exitDx=0;exitDy=0;entryX=0;entryY=1;entryDx=0;entryDy=0;" parent="1" source="tOMAKgP3rDthFPzLRQrB-22" target="nmE42dB6QyYmcY3QH0II-139" edge="1">
                    <mxGeometry relative="1" as="geometry">
                        <mxPoint x="1001" y="817" as="sourcePoint"/>
                        <mxPoint x="1061" y="867" as="targetPoint"/>
                    </mxGeometry>
                </mxCell>
                <mxCell id="nmE42dB6QyYmcY3QH0II-142" value="微信版本" style="whiteSpace=wrap;html=1;shape=partialRectangle;top=0;left=0;bottom=1;right=0;points=[[0,1],[1,1]];fillColor=none;align=left;verticalAlign=bottom;routingCenterY=0.5;snapToPoint=1;recursiveResize=0;autosize=1;treeFolding=1;treeMoving=1;newEdgeStyle={&quot;edgeStyle&quot;:&quot;entityRelationEdgeStyle&quot;,&quot;startArrow&quot;:&quot;none&quot;,&quot;endArrow&quot;:&quot;none&quot;,&quot;segment&quot;:10,&quot;curved&quot;:1};" parent="1" vertex="1">
                    <mxGeometry x="1050" y="1108" width="57.5" height="20" as="geometry"/>
                </mxCell>
                <mxCell id="nmE42dB6QyYmcY3QH0II-143" value="微信SDK版本" style="whiteSpace=wrap;html=1;shape=partialRectangle;top=0;left=0;bottom=1;right=0;points=[[0,1],[1,1]];fillColor=none;align=left;verticalAlign=bottom;routingCenterY=0.5;snapToPoint=1;recursiveResize=0;autosize=1;treeFolding=1;treeMoving=1;newEdgeStyle={&quot;edgeStyle&quot;:&quot;entityRelationEdgeStyle&quot;,&quot;startArrow&quot;:&quot;none&quot;,&quot;endArrow&quot;:&quot;none&quot;,&quot;segment&quot;:10,&quot;curved&quot;:1};" parent="1" vertex="1">
                    <mxGeometry x="1050" y="1078" width="77.5" height="20" as="geometry"/>
                </mxCell>
                <mxCell id="nmE42dB6QyYmcY3QH0II-144" value="" style="edgeStyle=entityRelationEdgeStyle;startArrow=none;endArrow=none;segment=10;curved=1;exitX=1;exitY=0.5;exitDx=0;exitDy=0;entryX=0;entryY=1;entryDx=0;entryDy=0;" parent="1" source="tOMAKgP3rDthFPzLRQrB-24" target="nmE42dB6QyYmcY3QH0II-142" edge="1">
                    <mxGeometry relative="1" as="geometry">
                        <mxPoint x="1131" y="787" as="sourcePoint"/>
                        <mxPoint x="1206" y="867" as="targetPoint"/>
                    </mxGeometry>
                </mxCell>
                <mxCell id="nmE42dB6QyYmcY3QH0II-145" value="" style="edgeStyle=entityRelationEdgeStyle;startArrow=none;endArrow=none;segment=10;curved=1;exitX=1;exitY=0.5;exitDx=0;exitDy=0;entryX=0;entryY=1;entryDx=0;entryDy=0;" parent="1" source="tOMAKgP3rDthFPzLRQrB-24" target="nmE42dB6QyYmcY3QH0II-143" edge="1">
                    <mxGeometry relative="1" as="geometry">
                        <mxPoint x="1131" y="787" as="sourcePoint"/>
                        <mxPoint x="1206" y="927" as="targetPoint"/>
                    </mxGeometry>
                </mxCell>
                <mxCell id="nmE42dB6QyYmcY3QH0II-156" value="App 模块信息?" style="ellipse;whiteSpace=wrap;html=1;align=center;newEdgeStyle={&quot;edgeStyle&quot;:&quot;entityRelationEdgeStyle&quot;,&quot;startArrow&quot;:&quot;none&quot;,&quot;endArrow&quot;:&quot;none&quot;,&quot;segment&quot;:10,&quot;curved&quot;:1};treeFolding=1;treeMoving=1;" parent="1" vertex="1">
                    <mxGeometry x="460" y="1810" width="100" height="40" as="geometry"/>
                </mxCell>
                <mxCell id="nmE42dB6QyYmcY3QH0II-157" value="模块 ID" style="whiteSpace=wrap;html=1;shape=partialRectangle;top=0;left=0;bottom=1;right=0;points=[[0,1],[1,1]];fillColor=none;align=left;verticalAlign=bottom;routingCenterY=0.5;snapToPoint=1;recursiveResize=0;autosize=1;treeFolding=1;treeMoving=1;newEdgeStyle={&quot;edgeStyle&quot;:&quot;entityRelationEdgeStyle&quot;,&quot;startArrow&quot;:&quot;none&quot;,&quot;endArrow&quot;:&quot;none&quot;,&quot;segment&quot;:10,&quot;curved&quot;:1};" parent="1" vertex="1">
                    <mxGeometry x="940" y="1660" width="55" height="20" as="geometry"/>
                </mxCell>
                <mxCell id="nmE42dB6QyYmcY3QH0II-158" value="" style="edgeStyle=entityRelationEdgeStyle;startArrow=none;endArrow=none;segment=10;curved=1;entryX=0;entryY=1;entryDx=0;entryDy=0;exitX=1;exitY=0.5;exitDx=0;exitDy=0;" parent="1" source="8IKAU5pIxgZYy55x_xZ_-7" target="nmE42dB6QyYmcY3QH0II-157" edge="1">
                    <mxGeometry relative="1" as="geometry">
                        <mxPoint x="770" y="1920" as="sourcePoint"/>
                        <mxPoint x="805" y="1830" as="targetPoint"/>
                    </mxGeometry>
                </mxCell>
                <mxCell id="nmE42dB6QyYmcY3QH0II-161" value="" style="edgeStyle=entityRelationEdgeStyle;startArrow=none;endArrow=none;segment=10;curved=1;entryX=0;entryY=1;entryDx=0;entryDy=0;exitX=1;exitY=0.5;exitDx=0;exitDy=0;" parent="1" source="8IKAU5pIxgZYy55x_xZ_-7" target="nmE42dB6QyYmcY3QH0II-164" edge="1">
                    <mxGeometry relative="1" as="geometry">
                        <mxPoint x="740" y="1910" as="sourcePoint"/>
                        <mxPoint x="790" y="1915" as="targetPoint"/>
                    </mxGeometry>
                </mxCell>
                <mxCell id="nmE42dB6QyYmcY3QH0II-162" value="模块 Commit ID?" style="whiteSpace=wrap;html=1;shape=partialRectangle;top=0;left=0;bottom=1;right=0;points=[[0,1],[1,1]];fillColor=none;align=left;verticalAlign=bottom;routingCenterY=0.5;snapToPoint=1;recursiveResize=0;autosize=1;treeFolding=1;treeMoving=1;newEdgeStyle={&quot;edgeStyle&quot;:&quot;entityRelationEdgeStyle&quot;,&quot;startArrow&quot;:&quot;none&quot;,&quot;endArrow&quot;:&quot;none&quot;,&quot;segment&quot;:10,&quot;curved&quot;:1};" parent="1" vertex="1">
                    <mxGeometry x="940" y="1720" width="120" height="20" as="geometry"/>
                </mxCell>
                <mxCell id="nmE42dB6QyYmcY3QH0II-163" value="" style="edgeStyle=entityRelationEdgeStyle;startArrow=none;endArrow=none;segment=10;curved=1;entryX=0;entryY=1;entryDx=0;entryDy=0;exitX=1;exitY=0.5;exitDx=0;exitDy=0;" parent="1" source="8IKAU5pIxgZYy55x_xZ_-7" target="nmE42dB6QyYmcY3QH0II-162" edge="1">
                    <mxGeometry relative="1" as="geometry">
                        <mxPoint x="730" y="1940" as="sourcePoint"/>
                        <mxPoint x="805" y="1900" as="targetPoint"/>
                    </mxGeometry>
                </mxCell>
                <mxCell id="nmE42dB6QyYmcY3QH0II-164" value="模块版本?" style="whiteSpace=wrap;html=1;shape=partialRectangle;top=0;left=0;bottom=1;right=0;points=[[0,1],[1,1]];fillColor=none;align=left;verticalAlign=bottom;routingCenterY=0.5;snapToPoint=1;recursiveResize=0;autosize=1;treeFolding=1;treeMoving=1;newEdgeStyle={&quot;edgeStyle&quot;:&quot;entityRelationEdgeStyle&quot;,&quot;startArrow&quot;:&quot;none&quot;,&quot;endArrow&quot;:&quot;none&quot;,&quot;segment&quot;:10,&quot;curved&quot;:1};" parent="1" vertex="1">
                    <mxGeometry x="940" y="1690" width="90" height="20" as="geometry"/>
                </mxCell>
                <mxCell id="nmE42dB6QyYmcY3QH0II-165" value="" style="edgeStyle=entityRelationEdgeStyle;startArrow=none;endArrow=none;segment=10;curved=1;exitX=1;exitY=0.5;exitDx=0;exitDy=0;entryX=0;entryY=1;entryDx=0;entryDy=0;" parent="1" source="8IKAU5pIxgZYy55x_xZ_-7" target="nmE42dB6QyYmcY3QH0II-166" edge="1">
                    <mxGeometry relative="1" as="geometry">
                        <mxPoint x="740" y="1910" as="sourcePoint"/>
                        <mxPoint x="790" y="1930" as="targetPoint"/>
                    </mxGeometry>
                </mxCell>
                <mxCell id="nmE42dB6QyYmcY3QH0II-166" value="模块构建时间?" style="whiteSpace=wrap;html=1;shape=partialRectangle;top=0;left=0;bottom=1;right=0;points=[[0,1],[1,1]];fillColor=none;align=left;verticalAlign=bottom;routingCenterY=0.5;snapToPoint=1;recursiveResize=0;autosize=1;treeFolding=1;treeMoving=1;newEdgeStyle={&quot;edgeStyle&quot;:&quot;entityRelationEdgeStyle&quot;,&quot;startArrow&quot;:&quot;none&quot;,&quot;endArrow&quot;:&quot;none&quot;,&quot;segment&quot;:10,&quot;curved&quot;:1};" parent="1" vertex="1">
                    <mxGeometry x="940" y="1750" width="110" height="20" as="geometry"/>
                </mxCell>
                <mxCell id="nmE42dB6QyYmcY3QH0II-168" value="模块页面地址" style="whiteSpace=wrap;html=1;shape=partialRectangle;top=0;left=0;bottom=1;right=0;points=[[0,1],[1,1]];fillColor=none;align=left;verticalAlign=bottom;routingCenterY=0.5;snapToPoint=1;recursiveResize=0;autosize=1;treeFolding=1;treeMoving=1;newEdgeStyle={&quot;edgeStyle&quot;:&quot;entityRelationEdgeStyle&quot;,&quot;startArrow&quot;:&quot;none&quot;,&quot;endArrow&quot;:&quot;none&quot;,&quot;segment&quot;:10,&quot;curved&quot;:1};" parent="1" vertex="1">
                    <mxGeometry x="1007.5" y="1950" width="92.5" height="20" as="geometry"/>
                </mxCell>
                <mxCell id="nmE42dB6QyYmcY3QH0II-169" value="" style="edgeStyle=entityRelationEdgeStyle;startArrow=none;endArrow=none;segment=10;curved=1;exitX=1;exitY=0.5;exitDx=0;exitDy=0;entryX=0;entryY=1;entryDx=0;entryDy=0;" parent="1" source="8IKAU5pIxgZYy55x_xZ_-5" target="nmE42dB6QyYmcY3QH0II-168" edge="1">
                    <mxGeometry relative="1" as="geometry">
                        <mxPoint x="730" y="1930" as="sourcePoint"/>
                        <mxPoint x="790" y="2020" as="targetPoint"/>
                    </mxGeometry>
                </mxCell>
                <mxCell id="tOMAKgP3rDthFPzLRQrB-1" value="基本信息" style="whiteSpace=wrap;html=1;rounded=1;arcSize=50;align=center;verticalAlign=middle;strokeWidth=1;autosize=1;spacing=4;treeFolding=1;treeMoving=1;newEdgeStyle={&quot;edgeStyle&quot;:&quot;entityRelationEdgeStyle&quot;,&quot;startArrow&quot;:&quot;none&quot;,&quot;endArrow&quot;:&quot;none&quot;,&quot;segment&quot;:10,&quot;curved&quot;:1};" parent="1" vertex="1">
                    <mxGeometry x="605" y="1379.71" width="90" height="30" as="geometry"/>
                </mxCell>
                <mxCell id="tOMAKgP3rDthFPzLRQrB-2" value="" style="edgeStyle=entityRelationEdgeStyle;startArrow=none;endArrow=none;segment=10;curved=1;exitX=1;exitY=0.5;exitDx=0;exitDy=0;" parent="1" source="nmE42dB6QyYmcY3QH0II-98" target="tOMAKgP3rDthFPzLRQrB-1" edge="1">
                    <mxGeometry relative="1" as="geometry">
                        <mxPoint x="483" y="1539.71" as="sourcePoint"/>
                    </mxGeometry>
                </mxCell>
                <mxCell id="tOMAKgP3rDthFPzLRQrB-3" value="状态" style="whiteSpace=wrap;html=1;rounded=1;arcSize=50;align=center;verticalAlign=middle;strokeWidth=1;autosize=1;spacing=4;treeFolding=1;treeMoving=1;newEdgeStyle={&quot;edgeStyle&quot;:&quot;entityRelationEdgeStyle&quot;,&quot;startArrow&quot;:&quot;none&quot;,&quot;endArrow&quot;:&quot;none&quot;,&quot;segment&quot;:10,&quot;curved&quot;:1};" parent="1" vertex="1">
                    <mxGeometry x="620" y="1464.71" width="60" height="30" as="geometry"/>
                </mxCell>
                <mxCell id="tOMAKgP3rDthFPzLRQrB-4" value="" style="edgeStyle=entityRelationEdgeStyle;startArrow=none;endArrow=none;segment=10;curved=1;exitX=1;exitY=0.5;exitDx=0;exitDy=0;" parent="1" source="nmE42dB6QyYmcY3QH0II-98" target="tOMAKgP3rDthFPzLRQrB-3" edge="1">
                    <mxGeometry relative="1" as="geometry">
                        <mxPoint x="483" y="1593.71" as="sourcePoint"/>
                    </mxGeometry>
                </mxCell>
                <mxCell id="tOMAKgP3rDthFPzLRQrB-5" value="平台相关" style="whiteSpace=wrap;html=1;rounded=1;arcSize=50;align=center;verticalAlign=middle;strokeWidth=1;autosize=1;spacing=4;treeFolding=1;treeMoving=1;newEdgeStyle={&quot;edgeStyle&quot;:&quot;entityRelationEdgeStyle&quot;,&quot;startArrow&quot;:&quot;none&quot;,&quot;endArrow&quot;:&quot;none&quot;,&quot;segment&quot;:10,&quot;curved&quot;:1};" parent="1" vertex="1">
                    <mxGeometry x="605" y="1557.71" width="90" height="30" as="geometry"/>
                </mxCell>
                <mxCell id="tOMAKgP3rDthFPzLRQrB-6" value="" style="edgeStyle=entityRelationEdgeStyle;startArrow=none;endArrow=none;segment=10;curved=1;exitX=1;exitY=0.5;exitDx=0;exitDy=0;" parent="1" source="nmE42dB6QyYmcY3QH0II-98" target="tOMAKgP3rDthFPzLRQrB-5" edge="1">
                    <mxGeometry relative="1" as="geometry">
                        <mxPoint x="483" y="1649.71" as="sourcePoint"/>
                    </mxGeometry>
                </mxCell>
                <mxCell id="tOMAKgP3rDthFPzLRQrB-12" value="设备信息" style="whiteSpace=wrap;html=1;rounded=1;arcSize=50;align=center;verticalAlign=middle;strokeWidth=1;autosize=1;spacing=4;treeFolding=1;treeMoving=1;newEdgeStyle={&quot;edgeStyle&quot;:&quot;entityRelationEdgeStyle&quot;,&quot;startArrow&quot;:&quot;none&quot;,&quot;endArrow&quot;:&quot;none&quot;,&quot;segment&quot;:10,&quot;curved&quot;:1};" parent="1" vertex="1">
                    <mxGeometry x="656" y="998" width="90" height="30" as="geometry"/>
                </mxCell>
                <mxCell id="tOMAKgP3rDthFPzLRQrB-13" value="" style="edgeStyle=entityRelationEdgeStyle;startArrow=none;endArrow=none;segment=10;curved=1;exitX=1;exitY=0.5;exitDx=0;exitDy=0;" parent="1" source="nmE42dB6QyYmcY3QH0II-124" target="tOMAKgP3rDthFPzLRQrB-12" edge="1">
                    <mxGeometry relative="1" as="geometry">
                        <mxPoint x="540" y="1265" as="sourcePoint"/>
                    </mxGeometry>
                </mxCell>
                <mxCell id="tOMAKgP3rDthFPzLRQrB-14" value="用户信息" style="whiteSpace=wrap;html=1;rounded=1;arcSize=50;align=center;verticalAlign=middle;strokeWidth=1;autosize=1;spacing=4;treeFolding=1;treeMoving=1;newEdgeStyle={&quot;edgeStyle&quot;:&quot;entityRelationEdgeStyle&quot;,&quot;startArrow&quot;:&quot;none&quot;,&quot;endArrow&quot;:&quot;none&quot;,&quot;segment&quot;:10,&quot;curved&quot;:1};" parent="1" vertex="1">
                    <mxGeometry x="640" y="1158" width="90" height="30" as="geometry"/>
                </mxCell>
                <mxCell id="tOMAKgP3rDthFPzLRQrB-15" value="" style="edgeStyle=entityRelationEdgeStyle;startArrow=none;endArrow=none;segment=10;curved=1;exitX=1;exitY=0.5;exitDx=0;exitDy=0;" parent="1" source="nmE42dB6QyYmcY3QH0II-124" target="tOMAKgP3rDthFPzLRQrB-14" edge="1">
                    <mxGeometry relative="1" as="geometry">
                        <mxPoint x="549" y="1322" as="sourcePoint"/>
                    </mxGeometry>
                </mxCell>
                <mxCell id="tOMAKgP3rDthFPzLRQrB-16" value="平台相关" style="whiteSpace=wrap;html=1;rounded=1;arcSize=50;align=center;verticalAlign=middle;strokeWidth=1;autosize=1;spacing=4;treeFolding=1;treeMoving=1;newEdgeStyle={&quot;edgeStyle&quot;:&quot;entityRelationEdgeStyle&quot;,&quot;startArrow&quot;:&quot;none&quot;,&quot;endArrow&quot;:&quot;none&quot;,&quot;segment&quot;:10,&quot;curved&quot;:1};" parent="1" vertex="1">
                    <mxGeometry x="690" y="1078" width="90" height="30" as="geometry"/>
                </mxCell>
                <mxCell id="tOMAKgP3rDthFPzLRQrB-17" value="" style="edgeStyle=entityRelationEdgeStyle;startArrow=none;endArrow=none;segment=10;curved=1;exitX=1;exitY=0.5;exitDx=0;exitDy=0;entryX=0;entryY=0.5;entryDx=0;entryDy=0;" parent="1" source="nmE42dB6QyYmcY3QH0II-124" target="tOMAKgP3rDthFPzLRQrB-16" edge="1">
                    <mxGeometry relative="1" as="geometry">
                        <mxPoint x="549" y="1388" as="sourcePoint"/>
                    </mxGeometry>
                </mxCell>
                <mxCell id="tOMAKgP3rDthFPzLRQrB-18" value="H5?" style="whiteSpace=wrap;html=1;rounded=1;arcSize=50;align=center;verticalAlign=middle;strokeWidth=1;autosize=1;spacing=4;treeFolding=1;treeMoving=1;newEdgeStyle={&quot;edgeStyle&quot;:&quot;entityRelationEdgeStyle&quot;,&quot;startArrow&quot;:&quot;none&quot;,&quot;endArrow&quot;:&quot;none&quot;,&quot;segment&quot;:10,&quot;curved&quot;:1};" parent="1" vertex="1">
                    <mxGeometry x="740" y="1557.71" width="60" height="30" as="geometry"/>
                </mxCell>
                <mxCell id="tOMAKgP3rDthFPzLRQrB-19" value="" style="edgeStyle=entityRelationEdgeStyle;startArrow=none;endArrow=none;segment=10;curved=1;exitX=1;exitY=0.5;exitDx=0;exitDy=0;" parent="1" source="tOMAKgP3rDthFPzLRQrB-5" target="tOMAKgP3rDthFPzLRQrB-18" edge="1">
                    <mxGeometry relative="1" as="geometry">
                        <mxPoint x="719" y="1458.71" as="sourcePoint"/>
                    </mxGeometry>
                </mxCell>
                <mxCell id="tOMAKgP3rDthFPzLRQrB-22" value="H5?" style="whiteSpace=wrap;html=1;rounded=1;arcSize=50;align=center;verticalAlign=middle;strokeWidth=1;autosize=1;spacing=4;treeFolding=1;treeMoving=1;newEdgeStyle={&quot;edgeStyle&quot;:&quot;entityRelationEdgeStyle&quot;,&quot;startArrow&quot;:&quot;none&quot;,&quot;endArrow&quot;:&quot;none&quot;,&quot;segment&quot;:10,&quot;curved&quot;:1};" parent="1" vertex="1">
                    <mxGeometry x="850" y="1043" width="60" height="30" as="geometry"/>
                </mxCell>
                <mxCell id="tOMAKgP3rDthFPzLRQrB-24" value="小程序?" style="whiteSpace=wrap;html=1;rounded=1;arcSize=50;align=center;verticalAlign=middle;strokeWidth=1;autosize=1;spacing=4;treeFolding=1;treeMoving=1;newEdgeStyle={&quot;edgeStyle&quot;:&quot;entityRelationEdgeStyle&quot;,&quot;startArrow&quot;:&quot;none&quot;,&quot;endArrow&quot;:&quot;none&quot;,&quot;segment&quot;:10,&quot;curved&quot;:1};" parent="1" vertex="1">
                    <mxGeometry x="865" y="1103" width="80" height="30" as="geometry"/>
                </mxCell>
                <mxCell id="tOMAKgP3rDthFPzLRQrB-27" value="用户ID?" style="whiteSpace=wrap;html=1;shape=partialRectangle;top=0;left=0;bottom=1;right=0;points=[[0,1],[1,1]];fillColor=none;align=left;verticalAlign=bottom;routingCenterY=0.5;snapToPoint=1;recursiveResize=0;autosize=1;treeFolding=1;treeMoving=1;newEdgeStyle={&quot;edgeStyle&quot;:&quot;entityRelationEdgeStyle&quot;,&quot;startArrow&quot;:&quot;none&quot;,&quot;endArrow&quot;:&quot;none&quot;,&quot;segment&quot;:10,&quot;curved&quot;:1};" parent="1" vertex="1">
                    <mxGeometry x="795" y="1163" width="80" height="20" as="geometry"/>
                </mxCell>
                <mxCell id="tOMAKgP3rDthFPzLRQrB-28" value="" style="edgeStyle=entityRelationEdgeStyle;startArrow=none;endArrow=none;segment=10;curved=1;exitX=1;exitY=0.5;exitDx=0;exitDy=0;" parent="1" source="tOMAKgP3rDthFPzLRQrB-14" target="tOMAKgP3rDthFPzLRQrB-27" edge="1">
                    <mxGeometry relative="1" as="geometry">
                        <mxPoint x="796" y="1388" as="sourcePoint"/>
                    </mxGeometry>
                </mxCell>
                <mxCell id="tOMAKgP3rDthFPzLRQrB-29" value="基本信息" style="whiteSpace=wrap;html=1;rounded=1;arcSize=50;align=center;verticalAlign=middle;strokeWidth=1;autosize=1;spacing=4;treeFolding=1;treeMoving=1;newEdgeStyle={&quot;edgeStyle&quot;:&quot;entityRelationEdgeStyle&quot;,&quot;startArrow&quot;:&quot;none&quot;,&quot;endArrow&quot;:&quot;none&quot;,&quot;segment&quot;:10,&quot;curved&quot;:1};" parent="1" vertex="1">
                    <mxGeometry x="870" y="902" width="90" height="30" as="geometry"/>
                </mxCell>
                <mxCell id="tOMAKgP3rDthFPzLRQrB-30" value="" style="edgeStyle=entityRelationEdgeStyle;startArrow=none;endArrow=none;segment=10;curved=1;exitX=1;exitY=0.5;exitDx=0;exitDy=0;" parent="1" source="tOMAKgP3rDthFPzLRQrB-12" target="tOMAKgP3rDthFPzLRQrB-29" edge="1">
                    <mxGeometry relative="1" as="geometry">
                        <mxPoint x="690" y="912" as="sourcePoint"/>
                    </mxGeometry>
                </mxCell>
                <mxCell id="tOMAKgP3rDthFPzLRQrB-31" value="状态" style="whiteSpace=wrap;html=1;rounded=1;arcSize=50;align=center;verticalAlign=middle;strokeWidth=1;autosize=1;spacing=4;treeFolding=1;treeMoving=1;newEdgeStyle={&quot;edgeStyle&quot;:&quot;entityRelationEdgeStyle&quot;,&quot;startArrow&quot;:&quot;none&quot;,&quot;endArrow&quot;:&quot;none&quot;,&quot;segment&quot;:10,&quot;curved&quot;:1};" parent="1" vertex="1">
                    <mxGeometry x="885" y="968" width="60" height="30" as="geometry"/>
                </mxCell>
                <mxCell id="tOMAKgP3rDthFPzLRQrB-32" value="" style="edgeStyle=entityRelationEdgeStyle;startArrow=none;endArrow=none;segment=10;curved=1;exitX=1;exitY=0.5;exitDx=0;exitDy=0;" parent="1" source="tOMAKgP3rDthFPzLRQrB-12" target="tOMAKgP3rDthFPzLRQrB-31" edge="1">
                    <mxGeometry relative="1" as="geometry">
                        <mxPoint x="705" y="982" as="sourcePoint"/>
                    </mxGeometry>
                </mxCell>
                <mxCell id="8IKAU5pIxgZYy55x_xZ_-1" value="DOM Content Loaded Event&amp;nbsp;" style="whiteSpace=wrap;html=1;rounded=1;arcSize=50;align=center;verticalAlign=middle;strokeWidth=1;autosize=1;spacing=4;treeFolding=1;treeMoving=1;newEdgeStyle={&quot;edgeStyle&quot;:&quot;entityRelationEdgeStyle&quot;,&quot;startArrow&quot;:&quot;none&quot;,&quot;endArrow&quot;:&quot;none&quot;,&quot;segment&quot;:10,&quot;curved&quot;:1};" parent="1" vertex="1">
                    <mxGeometry x="1190" y="525" width="190" height="30" as="geometry"/>
                </mxCell>
                <mxCell id="8IKAU5pIxgZYy55x_xZ_-2" value="" style="edgeStyle=entityRelationEdgeStyle;startArrow=none;endArrow=none;segment=10;curved=1;exitX=0.5;exitY=1;exitDx=0;exitDy=0;entryX=0.5;entryY=0;entryDx=0;entryDy=0;" parent="1" source="nmE42dB6QyYmcY3QH0II-20" target="8IKAU5pIxgZYy55x_xZ_-1" edge="1">
                    <mxGeometry relative="1" as="geometry">
                        <mxPoint x="1208.5" y="607" as="sourcePoint"/>
                    </mxGeometry>
                </mxCell>
                <mxCell id="8IKAU5pIxgZYy55x_xZ_-3" value="平台相关" style="whiteSpace=wrap;html=1;rounded=1;arcSize=50;align=center;verticalAlign=middle;strokeWidth=1;autosize=1;spacing=4;treeFolding=1;treeMoving=1;newEdgeStyle={&quot;edgeStyle&quot;:&quot;entityRelationEdgeStyle&quot;,&quot;startArrow&quot;:&quot;none&quot;,&quot;endArrow&quot;:&quot;none&quot;,&quot;segment&quot;:10,&quot;curved&quot;:1};" parent="1" vertex="1">
                    <mxGeometry x="721" y="1928" width="90" height="30" as="geometry"/>
                </mxCell>
                <mxCell id="8IKAU5pIxgZYy55x_xZ_-4" value="" style="edgeStyle=entityRelationEdgeStyle;startArrow=none;endArrow=none;segment=10;curved=1;exitX=1;exitY=0.5;exitDx=0;exitDy=0;" parent="1" source="nmE42dB6QyYmcY3QH0II-156" target="8IKAU5pIxgZYy55x_xZ_-3" edge="1">
                    <mxGeometry relative="1" as="geometry">
                        <mxPoint x="690" y="1970" as="sourcePoint"/>
                    </mxGeometry>
                </mxCell>
                <mxCell id="8IKAU5pIxgZYy55x_xZ_-5" value="H5?" style="whiteSpace=wrap;html=1;rounded=1;arcSize=50;align=center;verticalAlign=middle;strokeWidth=1;autosize=1;spacing=4;treeFolding=1;treeMoving=1;newEdgeStyle={&quot;edgeStyle&quot;:&quot;entityRelationEdgeStyle&quot;,&quot;startArrow&quot;:&quot;none&quot;,&quot;endArrow&quot;:&quot;none&quot;,&quot;segment&quot;:10,&quot;curved&quot;:1};" parent="1" vertex="1">
                    <mxGeometry x="884" y="1938" width="60" height="30" as="geometry"/>
                </mxCell>
                <mxCell id="8IKAU5pIxgZYy55x_xZ_-6" value="" style="edgeStyle=entityRelationEdgeStyle;startArrow=none;endArrow=none;segment=10;curved=1;exitX=1;exitY=0.5;exitDx=0;exitDy=0;" parent="1" source="8IKAU5pIxgZYy55x_xZ_-3" target="8IKAU5pIxgZYy55x_xZ_-5" edge="1">
                    <mxGeometry relative="1" as="geometry">
                        <mxPoint x="838" y="1980" as="sourcePoint"/>
                    </mxGeometry>
                </mxCell>
                <mxCell id="8IKAU5pIxgZYy55x_xZ_-7" value="基本信息" style="whiteSpace=wrap;html=1;rounded=1;arcSize=50;align=center;verticalAlign=middle;strokeWidth=1;autosize=1;spacing=4;treeFolding=1;treeMoving=1;newEdgeStyle={&quot;edgeStyle&quot;:&quot;entityRelationEdgeStyle&quot;,&quot;startArrow&quot;:&quot;none&quot;,&quot;endArrow&quot;:&quot;none&quot;,&quot;segment&quot;:10,&quot;curved&quot;:1};" parent="1" vertex="1">
                    <mxGeometry x="721" y="1730" width="90" height="30" as="geometry"/>
                </mxCell>
                <mxCell id="8IKAU5pIxgZYy55x_xZ_-8" value="" style="edgeStyle=entityRelationEdgeStyle;startArrow=none;endArrow=none;segment=10;curved=1;exitX=1;exitY=0.5;exitDx=0;exitDy=0;" parent="1" source="nmE42dB6QyYmcY3QH0II-156" target="8IKAU5pIxgZYy55x_xZ_-7" edge="1">
                    <mxGeometry relative="1" as="geometry">
                        <mxPoint x="580" y="1810" as="sourcePoint"/>
                    </mxGeometry>
                </mxCell>
                <mxCell id="8IKAU5pIxgZYy55x_xZ_-9" value="状态" style="whiteSpace=wrap;html=1;rounded=1;arcSize=50;align=center;verticalAlign=middle;strokeWidth=1;autosize=1;spacing=4;treeFolding=1;treeMoving=1;newEdgeStyle={&quot;edgeStyle&quot;:&quot;entityRelationEdgeStyle&quot;,&quot;startArrow&quot;:&quot;none&quot;,&quot;endArrow&quot;:&quot;none&quot;,&quot;segment&quot;:10,&quot;curved&quot;:1};" parent="1" vertex="1">
                    <mxGeometry x="736" y="1830" width="60" height="30" as="geometry"/>
                </mxCell>
                <mxCell id="8IKAU5pIxgZYy55x_xZ_-10" value="" style="edgeStyle=entityRelationEdgeStyle;startArrow=none;endArrow=none;segment=10;curved=1;exitX=1;exitY=0.5;exitDx=0;exitDy=0;" parent="1" source="nmE42dB6QyYmcY3QH0II-156" target="8IKAU5pIxgZYy55x_xZ_-9" edge="1">
                    <mxGeometry relative="1" as="geometry">
                        <mxPoint x="700" y="1864" as="sourcePoint"/>
                    </mxGeometry>
                </mxCell>
                <mxCell id="8IKAU5pIxgZYy55x_xZ_-11" value="&lt;span style=&quot;&quot;&gt;实际路由&lt;/span&gt;" style="whiteSpace=wrap;html=1;shape=partialRectangle;top=0;left=0;bottom=1;right=0;points=[[0,1],[1,1]];fillColor=none;align=left;verticalAlign=bottom;routingCenterY=0.5;snapToPoint=1;recursiveResize=0;autosize=1;treeFolding=1;treeMoving=1;newEdgeStyle={&quot;edgeStyle&quot;:&quot;entityRelationEdgeStyle&quot;,&quot;startArrow&quot;:&quot;none&quot;,&quot;endArrow&quot;:&quot;none&quot;,&quot;segment&quot;:10,&quot;curved&quot;:1};" parent="1" vertex="1">
                    <mxGeometry x="860" y="1810" width="60" height="20" as="geometry"/>
                </mxCell>
                <mxCell id="8IKAU5pIxgZYy55x_xZ_-12" value="" style="edgeStyle=entityRelationEdgeStyle;startArrow=none;endArrow=none;segment=10;curved=1;exitX=1;exitY=0.5;exitDx=0;exitDy=0;" parent="1" source="8IKAU5pIxgZYy55x_xZ_-9" target="8IKAU5pIxgZYy55x_xZ_-11" edge="1">
                    <mxGeometry relative="1" as="geometry">
                        <mxPoint x="820" y="1850" as="sourcePoint"/>
                    </mxGeometry>
                </mxCell>
                <mxCell id="8IKAU5pIxgZYy55x_xZ_-13" value="&lt;span&gt;路由 ID?&lt;/span&gt;" style="whiteSpace=wrap;html=1;shape=partialRectangle;top=0;left=0;bottom=1;right=0;points=[[0,1],[1,1]];fillColor=none;align=left;verticalAlign=bottom;routingCenterY=0.5;snapToPoint=1;recursiveResize=0;autosize=1;treeFolding=1;treeMoving=1;newEdgeStyle={&quot;edgeStyle&quot;:&quot;entityRelationEdgeStyle&quot;,&quot;startArrow&quot;:&quot;none&quot;,&quot;endArrow&quot;:&quot;none&quot;,&quot;segment&quot;:10,&quot;curved&quot;:1};" parent="1" vertex="1">
                    <mxGeometry x="860" y="1850" width="80" height="20" as="geometry"/>
                </mxCell>
                <mxCell id="8IKAU5pIxgZYy55x_xZ_-14" value="" style="edgeStyle=entityRelationEdgeStyle;startArrow=none;endArrow=none;segment=10;curved=1;exitX=1;exitY=0.5;exitDx=0;exitDy=0;" parent="1" source="8IKAU5pIxgZYy55x_xZ_-9" target="8IKAU5pIxgZYy55x_xZ_-13" edge="1">
                    <mxGeometry relative="1" as="geometry">
                        <mxPoint x="824" y="1900" as="sourcePoint"/>
                    </mxGeometry>
                </mxCell>
                <mxCell id="4" value="SDK 信息" style="ellipse;whiteSpace=wrap;html=1;align=center;newEdgeStyle={&quot;edgeStyle&quot;:&quot;entityRelationEdgeStyle&quot;,&quot;startArrow&quot;:&quot;none&quot;,&quot;endArrow&quot;:&quot;none&quot;,&quot;segment&quot;:10,&quot;curved&quot;:1};treeFolding=1;treeMoving=1;" parent="1" vertex="1">
                    <mxGeometry x="460" y="2020" width="100" height="40" as="geometry"/>
                </mxCell>
                <mxCell id="6" value="SDK 版本" style="whiteSpace=wrap;html=1;shape=partialRectangle;top=0;left=0;bottom=1;right=0;points=[[0,1],[1,1]];fillColor=none;align=left;verticalAlign=bottom;routingCenterY=0.5;snapToPoint=1;recursiveResize=0;autosize=1;treeFolding=1;treeMoving=1;newEdgeStyle={&quot;edgeStyle&quot;:&quot;entityRelationEdgeStyle&quot;,&quot;startArrow&quot;:&quot;none&quot;,&quot;endArrow&quot;:&quot;none&quot;,&quot;segment&quot;:10,&quot;curved&quot;:1};" parent="1" vertex="1">
                    <mxGeometry x="680" y="2040" width="80" height="20" as="geometry"/>
                </mxCell>
                <mxCell id="7" value="" style="edgeStyle=entityRelationEdgeStyle;startArrow=none;endArrow=none;segment=10;curved=1;exitX=1;exitY=0.5;exitDx=0;exitDy=0;" parent="1" source="4" target="6" edge="1">
                    <mxGeometry relative="1" as="geometry">
                        <mxPoint x="616" y="2240" as="sourcePoint"/>
                    </mxGeometry>
                </mxCell>
                <mxCell id="8" value="通用信息" style="ellipse;whiteSpace=wrap;html=1;align=center;newEdgeStyle={&quot;edgeStyle&quot;:&quot;entityRelationEdgeStyle&quot;,&quot;startArrow&quot;:&quot;none&quot;,&quot;endArrow&quot;:&quot;none&quot;,&quot;segment&quot;:10,&quot;curved&quot;:1};treeFolding=1;treeMoving=1;" parent="1" vertex="1">
                    <mxGeometry x="460" y="2140" width="100" height="40" as="geometry"/>
                </mxCell>
                <mxCell id="9" value="事件发生时间戳" style="whiteSpace=wrap;html=1;shape=partialRectangle;top=0;left=0;bottom=1;right=0;points=[[0,1],[1,1]];fillColor=none;align=left;verticalAlign=bottom;routingCenterY=0.5;snapToPoint=1;recursiveResize=0;autosize=1;treeFolding=1;treeMoving=1;newEdgeStyle={&quot;edgeStyle&quot;:&quot;entityRelationEdgeStyle&quot;,&quot;startArrow&quot;:&quot;none&quot;,&quot;endArrow&quot;:&quot;none&quot;,&quot;segment&quot;:10,&quot;curved&quot;:1};" parent="1" vertex="1">
                    <mxGeometry x="680" y="2110" width="120" height="20" as="geometry"/>
                </mxCell>
                <mxCell id="10" value="" style="edgeStyle=entityRelationEdgeStyle;startArrow=none;endArrow=none;segment=10;curved=1;exitX=1;exitY=0.5;exitDx=0;exitDy=0;" parent="1" source="8" target="9" edge="1">
                    <mxGeometry relative="1" as="geometry">
                        <mxPoint x="612" y="2170" as="sourcePoint"/>
                    </mxGeometry>
                </mxCell>
                <mxCell id="11" value="事件类型" style="whiteSpace=wrap;html=1;shape=partialRectangle;top=0;left=0;bottom=1;right=0;points=[[0,1],[1,1]];fillColor=none;align=left;verticalAlign=bottom;routingCenterY=0.5;snapToPoint=1;recursiveResize=0;autosize=1;treeFolding=1;treeMoving=1;newEdgeStyle={&quot;edgeStyle&quot;:&quot;entityRelationEdgeStyle&quot;,&quot;startArrow&quot;:&quot;none&quot;,&quot;endArrow&quot;:&quot;none&quot;,&quot;segment&quot;:10,&quot;curved&quot;:1};" parent="1" vertex="1">
                    <mxGeometry x="680" y="2160" width="80" height="20" as="geometry"/>
                </mxCell>
                <mxCell id="12" value="" style="edgeStyle=entityRelationEdgeStyle;startArrow=none;endArrow=none;segment=10;curved=1;exitX=1;exitY=0.5;exitDx=0;exitDy=0;" parent="1" source="8" target="11" edge="1">
                    <mxGeometry relative="1" as="geometry">
                        <mxPoint x="567.25" y="2220" as="sourcePoint"/>
                    </mxGeometry>
                </mxCell>
                <mxCell id="13" value="指标" style="ellipse;whiteSpace=wrap;html=1;align=center;newEdgeStyle={&quot;edgeStyle&quot;:&quot;entityRelationEdgeStyle&quot;,&quot;startArrow&quot;:&quot;none&quot;,&quot;endArrow&quot;:&quot;none&quot;,&quot;segment&quot;:10,&quot;curved&quot;:1};treeFolding=1;treeMoving=1;" parent="1" vertex="1">
                    <mxGeometry x="756" y="120" width="100" height="40" as="geometry"/>
                </mxCell>
                <mxCell id="16" value="启动加载" style="whiteSpace=wrap;html=1;rounded=1;arcSize=50;align=center;verticalAlign=middle;strokeWidth=1;autosize=1;spacing=4;treeFolding=1;treeMoving=1;newEdgeStyle={&quot;edgeStyle&quot;:&quot;entityRelationEdgeStyle&quot;,&quot;startArrow&quot;:&quot;none&quot;,&quot;endArrow&quot;:&quot;none&quot;,&quot;segment&quot;:10,&quot;curved&quot;:1};" parent="1" vertex="1">
                    <mxGeometry x="492.5" y="215" width="90" height="30" as="geometry"/>
                </mxCell>
                <mxCell id="19" value="" style="edgeStyle=entityRelationEdgeStyle;startArrow=none;endArrow=none;segment=10;curved=1;exitX=0.5;exitY=0;exitDx=0;exitDy=0;entryX=0.5;entryY=1;entryDx=0;entryDy=0;" parent="1" source="16" target="13" edge="1">
                    <mxGeometry relative="1" as="geometry">
                        <mxPoint x="529" y="140" as="sourcePoint"/>
                        <mxPoint x="941" y="100" as="targetPoint"/>
                    </mxGeometry>
                </mxCell>
                <mxCell id="20" value="指标分析纬度" style="ellipse;whiteSpace=wrap;html=1;align=center;newEdgeStyle={&quot;edgeStyle&quot;:&quot;entityRelationEdgeStyle&quot;,&quot;startArrow&quot;:&quot;none&quot;,&quot;endArrow&quot;:&quot;none&quot;,&quot;segment&quot;:10,&quot;curved&quot;:1};treeFolding=1;treeMoving=1;" parent="1" vertex="1">
                    <mxGeometry y="1940" width="100" height="40" as="geometry"/>
                </mxCell>
                <mxCell id="23" value="" style="edgeStyle=entityRelationEdgeStyle;startArrow=none;endArrow=none;segment=10;curved=1;entryX=0;entryY=0.5;entryDx=0;entryDy=0;exitX=1;exitY=0.5;exitDx=0;exitDy=0;" parent="1" source="20" target="nmE42dB6QyYmcY3QH0II-124" edge="1">
                    <mxGeometry relative="1" as="geometry">
                        <mxPoint x="1150" y="827" as="sourcePoint"/>
                        <mxPoint x="1430" y="587" as="targetPoint"/>
                    </mxGeometry>
                </mxCell>
                <mxCell id="25" value="" style="edgeStyle=entityRelationEdgeStyle;startArrow=none;endArrow=none;segment=10;curved=1;exitX=1;exitY=0.5;exitDx=0;exitDy=0;entryX=0;entryY=0.5;entryDx=0;entryDy=0;" parent="1" source="20" target="nmE42dB6QyYmcY3QH0II-156" edge="1">
                    <mxGeometry relative="1" as="geometry">
                        <mxPoint x="1270" y="473" as="sourcePoint"/>
                        <mxPoint x="1040" y="990" as="targetPoint"/>
                    </mxGeometry>
                </mxCell>
                <mxCell id="28" value="" style="edgeStyle=entityRelationEdgeStyle;startArrow=none;endArrow=none;segment=10;curved=1;exitX=1;exitY=0.5;exitDx=0;exitDy=0;entryX=0;entryY=0.5;entryDx=0;entryDy=0;" parent="1" source="20" target="nmE42dB6QyYmcY3QH0II-98" edge="1">
                    <mxGeometry relative="1" as="geometry">
                        <mxPoint x="270" y="1529" as="sourcePoint"/>
                        <mxPoint x="560" y="1487.7099999999996" as="targetPoint"/>
                    </mxGeometry>
                </mxCell>
                <mxCell id="31" value="" style="edgeStyle=entityRelationEdgeStyle;startArrow=none;endArrow=none;segment=10;curved=1;entryX=0;entryY=0.5;entryDx=0;entryDy=0;exitX=1;exitY=0.5;exitDx=0;exitDy=0;" parent="1" source="tOMAKgP3rDthFPzLRQrB-16" target="tOMAKgP3rDthFPzLRQrB-22" edge="1">
                    <mxGeometry relative="1" as="geometry">
                        <mxPoint x="950" y="1223" as="sourcePoint"/>
                    </mxGeometry>
                </mxCell>
                <mxCell id="32" value="" style="edgeStyle=entityRelationEdgeStyle;startArrow=none;endArrow=none;segment=10;curved=1;entryX=0;entryY=0.5;entryDx=0;entryDy=0;exitX=1;exitY=0.5;exitDx=0;exitDy=0;" parent="1" source="tOMAKgP3rDthFPzLRQrB-16" target="tOMAKgP3rDthFPzLRQrB-24" edge="1">
                    <mxGeometry relative="1" as="geometry">
                        <mxPoint x="750" y="1138" as="sourcePoint"/>
                        <mxPoint x="820" y="1103" as="targetPoint"/>
                    </mxGeometry>
                </mxCell>
                <mxCell id="36" value="" style="edgeStyle=entityRelationEdgeStyle;startArrow=none;endArrow=none;segment=10;curved=1;exitX=1;exitY=0.5;exitDx=0;exitDy=0;entryX=0;entryY=0.5;entryDx=0;entryDy=0;" parent="1" source="20" target="4" edge="1">
                    <mxGeometry relative="1" as="geometry">
                        <mxPoint x="230" y="1850" as="sourcePoint"/>
                        <mxPoint x="270.28571428571445" y="1829.7142857142858" as="targetPoint"/>
                    </mxGeometry>
                </mxCell>
                <mxCell id="37" value="" style="edgeStyle=entityRelationEdgeStyle;startArrow=none;endArrow=none;segment=10;curved=1;entryX=0;entryY=0.5;entryDx=0;entryDy=0;exitX=1;exitY=0.5;exitDx=0;exitDy=0;" parent="1" source="20" target="8" edge="1">
                    <mxGeometry relative="1" as="geometry">
                        <mxPoint x="120" y="1610" as="sourcePoint"/>
                        <mxPoint x="470" y="2050" as="targetPoint"/>
                    </mxGeometry>
                </mxCell>
                <mxCell id="40" value="" style="edgeStyle=entityRelationEdgeStyle;startArrow=none;endArrow=none;segment=10;curved=1;entryX=0.5;entryY=1;entryDx=0;entryDy=0;exitX=0.5;exitY=0;exitDx=0;exitDy=0;" parent="1" source="nmE42dB6QyYmcY3QH0II-6" target="nmE42dB6QyYmcY3QH0II-2" edge="1">
                    <mxGeometry relative="1" as="geometry">
                        <mxPoint x="49.5" y="485" as="sourcePoint"/>
                        <mxPoint x="88.97058823529414" y="465.0588235294118" as="targetPoint"/>
                    </mxGeometry>
                </mxCell>
                <mxCell id="42" value="" style="edgeStyle=entityRelationEdgeStyle;startArrow=none;endArrow=none;segment=10;curved=1;entryX=0.5;entryY=1;entryDx=0;entryDy=0;exitX=0.5;exitY=0;exitDx=0;exitDy=0;" parent="1" source="nmE42dB6QyYmcY3QH0II-7" target="nmE42dB6QyYmcY3QH0II-2" edge="1">
                    <mxGeometry relative="1" as="geometry">
                        <mxPoint x="113.5" y="585" as="sourcePoint"/>
                        <mxPoint x="253.5" y="525" as="targetPoint"/>
                    </mxGeometry>
                </mxCell>
                <mxCell id="43" value="" style="edgeStyle=entityRelationEdgeStyle;startArrow=none;endArrow=none;segment=10;curved=1;entryX=0.5;entryY=1;entryDx=0;entryDy=0;exitX=0.5;exitY=0;exitDx=0;exitDy=0;" parent="1" source="nmE42dB6QyYmcY3QH0II-49" target="nmE42dB6QyYmcY3QH0II-9" edge="1">
                    <mxGeometry relative="1" as="geometry">
                        <mxPoint x="363.5" y="495" as="sourcePoint"/>
                        <mxPoint x="406.78999999999996" y="565" as="targetPoint"/>
                    </mxGeometry>
                </mxCell>
                <mxCell id="44" value="" style="edgeStyle=entityRelationEdgeStyle;startArrow=none;endArrow=none;segment=10;curved=1;entryX=0.5;entryY=1;entryDx=0;entryDy=0;exitX=0.5;exitY=0;exitDx=0;exitDy=0;" parent="1" source="nmE42dB6QyYmcY3QH0II-40" target="nmE42dB6QyYmcY3QH0II-30" edge="1">
                    <mxGeometry relative="1" as="geometry">
                        <mxPoint x="578.5" y="600" as="sourcePoint"/>
                        <mxPoint x="628.5" y="650" as="targetPoint"/>
                    </mxGeometry>
                </mxCell>
                <mxCell id="45" value="" style="edgeStyle=entityRelationEdgeStyle;startArrow=none;endArrow=none;segment=10;curved=1;entryX=0.5;entryY=1;entryDx=0;entryDy=0;exitX=0.5;exitY=0;exitDx=0;exitDy=0;" parent="1" source="nmE42dB6QyYmcY3QH0II-39" target="nmE42dB6QyYmcY3QH0II-29" edge="1">
                    <mxGeometry relative="1" as="geometry">
                        <mxPoint x="558.5" y="655" as="sourcePoint"/>
                        <mxPoint x="588.5" y="605" as="targetPoint"/>
                    </mxGeometry>
                </mxCell>
                <mxCell id="47" value="" style="edgeStyle=entityRelationEdgeStyle;startArrow=none;endArrow=none;segment=10;curved=1;exitX=0.5;exitY=0;exitDx=0;exitDy=0;entryX=0.5;entryY=1;entryDx=0;entryDy=0;" parent="1" source="nmE42dB6QyYmcY3QH0II-29" target="nmE42dB6QyYmcY3QH0II-15" edge="1">
                    <mxGeometry relative="1" as="geometry">
                        <mxPoint x="643.5" y="505" as="sourcePoint"/>
                        <mxPoint x="808.5" y="525" as="targetPoint"/>
                    </mxGeometry>
                </mxCell>
                <mxCell id="50" value="" style="edgeStyle=entityRelationEdgeStyle;startArrow=none;endArrow=none;segment=10;curved=1;exitX=0.5;exitY=0;exitDx=0;exitDy=0;entryX=0.5;entryY=1;entryDx=0;entryDy=0;" parent="1" source="nmE42dB6QyYmcY3QH0II-45" target="nmE42dB6QyYmcY3QH0II-20" edge="1">
                    <mxGeometry relative="1" as="geometry">
                        <mxPoint x="1078.5" y="555" as="sourcePoint"/>
                        <mxPoint x="1118.5" y="475" as="targetPoint"/>
                    </mxGeometry>
                </mxCell>
                <mxCell id="51" style="edgeStyle=orthogonalEdgeStyle;rounded=0;orthogonalLoop=1;jettySize=auto;html=1;exitX=0.5;exitY=1;exitDx=0;exitDy=0;" parent="1" source="13" target="13" edge="1">
                    <mxGeometry relative="1" as="geometry"/>
                </mxCell>
                <mxCell id="52" value="稳定性" style="whiteSpace=wrap;html=1;rounded=1;arcSize=50;align=center;verticalAlign=middle;strokeWidth=1;autosize=1;spacing=4;treeFolding=1;treeMoving=1;newEdgeStyle={&quot;edgeStyle&quot;:&quot;entityRelationEdgeStyle&quot;,&quot;startArrow&quot;:&quot;none&quot;,&quot;endArrow&quot;:&quot;none&quot;,&quot;segment&quot;:10,&quot;curved&quot;:1};" parent="1" vertex="1">
                    <mxGeometry x="1098.5" y="215" width="80" height="30" as="geometry"/>
                </mxCell>
                <mxCell id="53" value="" style="edgeStyle=entityRelationEdgeStyle;startArrow=none;endArrow=none;segment=10;curved=1;exitX=0.5;exitY=1;exitDx=0;exitDy=0;" parent="1" source="13" target="52" edge="1">
                    <mxGeometry relative="1" as="geometry">
                        <mxPoint x="1099" y="244" as="sourcePoint"/>
                    </mxGeometry>
                </mxCell>
                <mxCell id="55" value="错误发生率" style="whiteSpace=wrap;html=1;rounded=1;arcSize=50;align=center;verticalAlign=middle;strokeWidth=1;autosize=1;spacing=4;treeFolding=1;treeMoving=1;newEdgeStyle={&quot;edgeStyle&quot;:&quot;entityRelationEdgeStyle&quot;,&quot;startArrow&quot;:&quot;none&quot;,&quot;endArrow&quot;:&quot;none&quot;,&quot;segment&quot;:10,&quot;curved&quot;:1};" parent="1" vertex="1">
                    <mxGeometry x="1008.5" y="295" width="100" height="30" as="geometry"/>
                </mxCell>
                <mxCell id="56" value="" style="edgeStyle=entityRelationEdgeStyle;startArrow=none;endArrow=none;segment=10;curved=1;entryX=0.5;entryY=1;entryDx=0;entryDy=0;exitX=0.5;exitY=0;exitDx=0;exitDy=0;" parent="1" source="55" target="52" edge="1">
                    <mxGeometry relative="1" as="geometry">
                        <mxPoint x="858.5" y="315" as="sourcePoint"/>
                    </mxGeometry>
                </mxCell>
                <mxCell id="57" value="错误发生数/设备" style="whiteSpace=wrap;html=1;rounded=1;arcSize=50;align=center;verticalAlign=middle;strokeWidth=1;autosize=1;spacing=4;treeFolding=1;treeMoving=1;newEdgeStyle={&quot;edgeStyle&quot;:&quot;entityRelationEdgeStyle&quot;,&quot;startArrow&quot;:&quot;none&quot;,&quot;endArrow&quot;:&quot;none&quot;,&quot;segment&quot;:10,&quot;curved&quot;:1};" parent="1" vertex="1">
                    <mxGeometry x="1178.5" y="295" width="130" height="30" as="geometry"/>
                </mxCell>
                <mxCell id="58" value="" style="edgeStyle=entityRelationEdgeStyle;startArrow=none;endArrow=none;segment=10;curved=1;exitX=0.5;exitY=1;exitDx=0;exitDy=0;entryX=0.5;entryY=0;entryDx=0;entryDy=0;" parent="1" source="52" target="57" edge="1">
                    <mxGeometry relative="1" as="geometry">
                        <mxPoint x="848.5" y="305" as="sourcePoint"/>
                        <mxPoint x="1088.5" y="285" as="targetPoint"/>
                    </mxGeometry>
                </mxCell>
                <mxCell id="151" value="日志信息" style="ellipse;whiteSpace=wrap;html=1;align=center;newEdgeStyle={&quot;edgeStyle&quot;:&quot;entityRelationEdgeStyle&quot;,&quot;startArrow&quot;:&quot;none&quot;,&quot;endArrow&quot;:&quot;none&quot;,&quot;segment&quot;:10,&quot;curved&quot;:1};treeFolding=1;treeMoving=1;" parent="1" vertex="1">
                    <mxGeometry x="460" y="2360" width="100" height="40" as="geometry"/>
                </mxCell>
                <mxCell id="152" value="实例 ID" style="whiteSpace=wrap;html=1;shape=partialRectangle;top=0;left=0;bottom=1;right=0;points=[[0,1],[1,1]];fillColor=none;align=left;verticalAlign=bottom;routingCenterY=0.5;snapToPoint=1;recursiveResize=0;autosize=1;treeFolding=1;treeMoving=1;newEdgeStyle={&quot;edgeStyle&quot;:&quot;entityRelationEdgeStyle&quot;,&quot;startArrow&quot;:&quot;none&quot;,&quot;endArrow&quot;:&quot;none&quot;,&quot;segment&quot;:10,&quot;curved&quot;:1};" parent="1" vertex="1">
                    <mxGeometry x="680" y="2270" width="65" height="20" as="geometry"/>
                </mxCell>
                <mxCell id="153" value="" style="edgeStyle=entityRelationEdgeStyle;startArrow=none;endArrow=none;segment=10;curved=1;exitX=1;exitY=0.5;exitDx=0;exitDy=0;" parent="1" source="151" target="152" edge="1">
                    <mxGeometry relative="1" as="geometry">
                        <mxPoint x="640" y="2350" as="sourcePoint"/>
                    </mxGeometry>
                </mxCell>
                <mxCell id="154" value="日志级别" style="whiteSpace=wrap;html=1;shape=partialRectangle;top=0;left=0;bottom=1;right=0;points=[[0,1],[1,1]];fillColor=none;align=left;verticalAlign=bottom;routingCenterY=0.5;snapToPoint=1;recursiveResize=0;autosize=1;treeFolding=1;treeMoving=1;newEdgeStyle={&quot;edgeStyle&quot;:&quot;entityRelationEdgeStyle&quot;,&quot;startArrow&quot;:&quot;none&quot;,&quot;endArrow&quot;:&quot;none&quot;,&quot;segment&quot;:10,&quot;curved&quot;:1};" parent="1" vertex="1">
                    <mxGeometry x="680" y="2310" width="80" height="20" as="geometry"/>
                </mxCell>
                <mxCell id="155" value="" style="edgeStyle=entityRelationEdgeStyle;startArrow=none;endArrow=none;segment=10;curved=1;exitX=1;exitY=0.5;exitDx=0;exitDy=0;" parent="1" source="151" target="154" edge="1">
                    <mxGeometry relative="1" as="geometry">
                        <mxPoint x="634" y="2450" as="sourcePoint"/>
                    </mxGeometry>
                </mxCell>
                <mxCell id="156" value="上下文 ID?" style="whiteSpace=wrap;html=1;shape=partialRectangle;top=0;left=0;bottom=1;right=0;points=[[0,1],[1,1]];fillColor=none;align=left;verticalAlign=bottom;routingCenterY=0.5;snapToPoint=1;recursiveResize=0;autosize=1;treeFolding=1;treeMoving=1;newEdgeStyle={&quot;edgeStyle&quot;:&quot;entityRelationEdgeStyle&quot;,&quot;startArrow&quot;:&quot;none&quot;,&quot;endArrow&quot;:&quot;none&quot;,&quot;segment&quot;:10,&quot;curved&quot;:1};" parent="1" vertex="1">
                    <mxGeometry x="680" y="2350" width="90" height="20" as="geometry"/>
                </mxCell>
                <mxCell id="157" value="" style="edgeStyle=entityRelationEdgeStyle;startArrow=none;endArrow=none;segment=10;curved=1;exitX=1;exitY=0.5;exitDx=0;exitDy=0;" parent="1" source="151" target="156" edge="1">
                    <mxGeometry relative="1" as="geometry">
                        <mxPoint x="645" y="2520" as="sourcePoint"/>
                    </mxGeometry>
                </mxCell>
                <mxCell id="158" value="是否有上下文?" style="whiteSpace=wrap;html=1;shape=partialRectangle;top=0;left=0;bottom=1;right=0;points=[[0,1],[1,1]];fillColor=none;align=left;verticalAlign=bottom;routingCenterY=0.5;snapToPoint=1;recursiveResize=0;autosize=1;treeFolding=1;treeMoving=1;newEdgeStyle={&quot;edgeStyle&quot;:&quot;entityRelationEdgeStyle&quot;,&quot;startArrow&quot;:&quot;none&quot;,&quot;endArrow&quot;:&quot;none&quot;,&quot;segment&quot;:10,&quot;curved&quot;:1};" parent="1" vertex="1">
                    <mxGeometry x="680" y="2390" width="110" height="20" as="geometry"/>
                </mxCell>
                <mxCell id="159" value="" style="edgeStyle=entityRelationEdgeStyle;startArrow=none;endArrow=none;segment=10;curved=1;exitX=1;exitY=0.5;exitDx=0;exitDy=0;" parent="1" source="151" target="158" edge="1">
                    <mxGeometry relative="1" as="geometry">
                        <mxPoint x="645" y="2590" as="sourcePoint"/>
                    </mxGeometry>
                </mxCell>
                <mxCell id="160" value="是否来自 Console 打印?" style="whiteSpace=wrap;html=1;shape=partialRectangle;top=0;left=0;bottom=1;right=0;points=[[0,1],[1,1]];fillColor=none;align=left;verticalAlign=bottom;routingCenterY=0.5;snapToPoint=1;recursiveResize=0;autosize=1;treeFolding=1;treeMoving=1;newEdgeStyle={&quot;edgeStyle&quot;:&quot;entityRelationEdgeStyle&quot;,&quot;startArrow&quot;:&quot;none&quot;,&quot;endArrow&quot;:&quot;none&quot;,&quot;segment&quot;:10,&quot;curved&quot;:1};" parent="1" vertex="1">
                    <mxGeometry x="680" y="2430" width="160" height="20" as="geometry"/>
                </mxCell>
                <mxCell id="161" value="" style="edgeStyle=entityRelationEdgeStyle;startArrow=none;endArrow=none;segment=10;curved=1;exitX=1;exitY=0.5;exitDx=0;exitDy=0;" parent="1" source="151" target="160" edge="1">
                    <mxGeometry relative="1" as="geometry">
                        <mxPoint x="660" y="2660" as="sourcePoint"/>
                    </mxGeometry>
                </mxCell>
                <mxCell id="162" value="日志正文" style="whiteSpace=wrap;html=1;shape=partialRectangle;top=0;left=0;bottom=1;right=0;points=[[0,1],[1,1]];fillColor=none;align=left;verticalAlign=bottom;routingCenterY=0.5;snapToPoint=1;recursiveResize=0;autosize=1;treeFolding=1;treeMoving=1;newEdgeStyle={&quot;edgeStyle&quot;:&quot;entityRelationEdgeStyle&quot;,&quot;startArrow&quot;:&quot;none&quot;,&quot;endArrow&quot;:&quot;none&quot;,&quot;segment&quot;:10,&quot;curved&quot;:1};" parent="1" vertex="1">
                    <mxGeometry x="680" y="2470" width="80" height="20" as="geometry"/>
                </mxCell>
                <mxCell id="163" value="" style="edgeStyle=entityRelationEdgeStyle;startArrow=none;endArrow=none;segment=10;curved=1;exitX=1;exitY=0.5;exitDx=0;exitDy=0;" parent="1" source="151" target="162" edge="1">
                    <mxGeometry relative="1" as="geometry">
                        <mxPoint x="610" y="2740" as="sourcePoint"/>
                    </mxGeometry>
                </mxCell>
                <mxCell id="164" value="其他自定义字段?" style="whiteSpace=wrap;html=1;shape=partialRectangle;top=0;left=0;bottom=1;right=0;points=[[0,1],[1,1]];fillColor=none;align=left;verticalAlign=bottom;routingCenterY=0.5;snapToPoint=1;recursiveResize=0;autosize=1;treeFolding=1;treeMoving=1;newEdgeStyle={&quot;edgeStyle&quot;:&quot;entityRelationEdgeStyle&quot;,&quot;startArrow&quot;:&quot;none&quot;,&quot;endArrow&quot;:&quot;none&quot;,&quot;segment&quot;:10,&quot;curved&quot;:1};" parent="1" vertex="1">
                    <mxGeometry x="680" y="2510" width="120" height="20" as="geometry"/>
                </mxCell>
                <mxCell id="165" value="" style="edgeStyle=entityRelationEdgeStyle;startArrow=none;endArrow=none;segment=10;curved=1;exitX=1;exitY=0.5;exitDx=0;exitDy=0;" parent="1" source="151" target="164" edge="1">
                    <mxGeometry relative="1" as="geometry">
                        <mxPoint x="660" y="2550" as="sourcePoint"/>
                    </mxGeometry>
                </mxCell>
                <mxCell id="167" value="" style="edgeStyle=entityRelationEdgeStyle;startArrow=none;endArrow=none;segment=10;curved=1;entryX=0;entryY=0.5;entryDx=0;entryDy=0;exitX=1;exitY=0.5;exitDx=0;exitDy=0;" parent="1" source="20" target="151" edge="1">
                    <mxGeometry relative="1" as="geometry">
                        <mxPoint x="400" y="2150" as="sourcePoint"/>
                        <mxPoint x="453" y="2287" as="targetPoint"/>
                    </mxGeometry>
                </mxCell>
                <mxCell id="170" value="其他自定义字段" style="ellipse;whiteSpace=wrap;html=1;align=center;newEdgeStyle={&quot;edgeStyle&quot;:&quot;entityRelationEdgeStyle&quot;,&quot;startArrow&quot;:&quot;none&quot;,&quot;endArrow&quot;:&quot;none&quot;,&quot;segment&quot;:10,&quot;curved&quot;:1};treeFolding=1;treeMoving=1;" parent="1" vertex="1">
                    <mxGeometry x="460" y="2890" width="100" height="40" as="geometry"/>
                </mxCell>
                <mxCell id="171" value="" style="edgeStyle=entityRelationEdgeStyle;startArrow=none;endArrow=none;segment=10;curved=1;entryX=0;entryY=0.5;entryDx=0;entryDy=0;exitX=1;exitY=0.5;exitDx=0;exitDy=0;" parent="1" source="20" target="170" edge="1">
                    <mxGeometry relative="1" as="geometry">
                        <mxPoint x="190" y="1524.71" as="sourcePoint"/>
                        <mxPoint x="470" y="2390" as="targetPoint"/>
                    </mxGeometry>
                </mxCell>
                <mxCell id="172" value="启动/加载信息" style="ellipse;whiteSpace=wrap;html=1;align=center;newEdgeStyle={&quot;edgeStyle&quot;:&quot;entityRelationEdgeStyle&quot;,&quot;startArrow&quot;:&quot;none&quot;,&quot;endArrow&quot;:&quot;none&quot;,&quot;segment&quot;:10,&quot;curved&quot;:1};treeFolding=1;treeMoving=1;" parent="1" vertex="1">
                    <mxGeometry x="460" y="2670" width="100" height="40" as="geometry"/>
                </mxCell>
                <mxCell id="188" value="" style="edgeStyle=entityRelationEdgeStyle;startArrow=none;endArrow=none;segment=10;curved=1;entryX=0;entryY=0.5;entryDx=0;entryDy=0;exitX=1;exitY=0.5;exitDx=0;exitDy=0;" parent="1" source="20" target="172" edge="1">
                    <mxGeometry relative="1" as="geometry">
                        <mxPoint x="140" y="1680" as="sourcePoint"/>
                        <mxPoint x="470.00000000001" y="2390" as="targetPoint"/>
                    </mxGeometry>
                </mxCell>
                <mxCell id="189" value="用户感知启动" style="whiteSpace=wrap;html=1;rounded=1;arcSize=50;align=center;verticalAlign=middle;strokeWidth=1;autosize=1;spacing=4;treeFolding=1;treeMoving=1;newEdgeStyle={&quot;edgeStyle&quot;:&quot;entityRelationEdgeStyle&quot;,&quot;startArrow&quot;:&quot;none&quot;,&quot;endArrow&quot;:&quot;none&quot;,&quot;segment&quot;:10,&quot;curved&quot;:1};" parent="1" vertex="1">
                    <mxGeometry x="640" y="2600" width="110" height="30" as="geometry"/>
                </mxCell>
                <mxCell id="190" value="" style="edgeStyle=entityRelationEdgeStyle;startArrow=none;endArrow=none;segment=10;curved=1;exitX=1;exitY=0.5;exitDx=0;exitDy=0;" parent="1" source="172" target="189" edge="1">
                    <mxGeometry relative="1" as="geometry">
                        <mxPoint x="578" y="2700" as="sourcePoint"/>
                    </mxGeometry>
                </mxCell>
                <mxCell id="192" value="" style="edgeStyle=entityRelationEdgeStyle;startArrow=none;endArrow=none;segment=10;curved=1;exitX=1;exitY=0.5;exitDx=0;exitDy=0;entryX=0;entryY=0.5;entryDx=0;entryDy=0;" parent="1" source="189" target="244" edge="1">
                    <mxGeometry relative="1" as="geometry">
                        <mxPoint x="780" y="2670" as="sourcePoint"/>
                        <mxPoint x="880" y="2570" as="targetPoint"/>
                    </mxGeometry>
                </mxCell>
                <mxCell id="193" value="fp" style="whiteSpace=wrap;html=1;shape=partialRectangle;top=0;left=0;bottom=1;right=0;points=[[0,1],[1,1]];fillColor=none;align=left;verticalAlign=bottom;routingCenterY=0.5;snapToPoint=1;recursiveResize=0;autosize=1;treeFolding=1;treeMoving=1;newEdgeStyle={&quot;edgeStyle&quot;:&quot;entityRelationEdgeStyle&quot;,&quot;startArrow&quot;:&quot;none&quot;,&quot;endArrow&quot;:&quot;none&quot;,&quot;segment&quot;:10,&quot;curved&quot;:1};" parent="1" vertex="1" collapsed="1">
                    <mxGeometry x="1400" y="2460" width="40" height="20" as="geometry"/>
                </mxCell>
                <mxCell id="194" value="" style="edgeStyle=entityRelationEdgeStyle;startArrow=none;endArrow=none;segment=10;curved=1;exitX=1;exitY=0.5;exitDx=0;exitDy=0;entryX=0;entryY=1;entryDx=0;entryDy=0;" parent="1" source="251" target="193" edge="1">
                    <mxGeometry relative="1" as="geometry">
                        <mxPoint x="956" y="2570" as="sourcePoint"/>
                        <mxPoint x="1331" y="2550" as="targetPoint"/>
                    </mxGeometry>
                </mxCell>
                <mxCell id="195" value="fcp" style="whiteSpace=wrap;html=1;shape=partialRectangle;top=0;left=0;bottom=1;right=0;points=[[0,1],[1,1]];fillColor=none;align=left;verticalAlign=bottom;routingCenterY=0.5;snapToPoint=1;recursiveResize=0;autosize=1;treeFolding=1;treeMoving=1;newEdgeStyle={&quot;edgeStyle&quot;:&quot;entityRelationEdgeStyle&quot;,&quot;startArrow&quot;:&quot;none&quot;,&quot;endArrow&quot;:&quot;none&quot;,&quot;segment&quot;:10,&quot;curved&quot;:1};" parent="1" vertex="1" collapsed="1">
                    <mxGeometry x="1400" y="2510" width="40" height="20" as="geometry"/>
                </mxCell>
                <mxCell id="196" value="" style="edgeStyle=entityRelationEdgeStyle;startArrow=none;endArrow=none;segment=10;curved=1;exitX=1;exitY=0.5;exitDx=0;exitDy=0;" parent="1" source="252" target="195" edge="1">
                    <mxGeometry relative="1" as="geometry">
                        <mxPoint x="956" y="2570" as="sourcePoint"/>
                    </mxGeometry>
                </mxCell>
                <mxCell id="197" value="fmp" style="whiteSpace=wrap;html=1;shape=partialRectangle;top=0;left=0;bottom=1;right=0;points=[[0,1],[1,1]];fillColor=none;align=left;verticalAlign=bottom;routingCenterY=0.5;snapToPoint=1;recursiveResize=0;autosize=1;treeFolding=1;treeMoving=1;newEdgeStyle={&quot;edgeStyle&quot;:&quot;entityRelationEdgeStyle&quot;,&quot;startArrow&quot;:&quot;none&quot;,&quot;endArrow&quot;:&quot;none&quot;,&quot;segment&quot;:10,&quot;curved&quot;:1};" parent="1" vertex="1">
                    <mxGeometry x="1160" y="2590" width="30" height="20" as="geometry"/>
                </mxCell>
                <mxCell id="198" value="" style="edgeStyle=entityRelationEdgeStyle;startArrow=none;endArrow=none;segment=10;curved=1;exitX=1;exitY=0.5;exitDx=0;exitDy=0;" parent="1" source="245" target="197" edge="1">
                    <mxGeometry relative="1" as="geometry">
                        <mxPoint x="849" y="2680" as="sourcePoint"/>
                    </mxGeometry>
                </mxCell>
                <mxCell id="199" value="tti" style="whiteSpace=wrap;html=1;shape=partialRectangle;top=0;left=0;bottom=1;right=0;points=[[0,1],[1,1]];fillColor=none;align=left;verticalAlign=bottom;routingCenterY=0.5;snapToPoint=1;recursiveResize=0;autosize=1;treeFolding=1;treeMoving=1;newEdgeStyle={&quot;edgeStyle&quot;:&quot;entityRelationEdgeStyle&quot;,&quot;startArrow&quot;:&quot;none&quot;,&quot;endArrow&quot;:&quot;none&quot;,&quot;segment&quot;:10,&quot;curved&quot;:1};" parent="1" vertex="1" collapsed="1">
                    <mxGeometry x="1160" y="2640" width="30" height="20" as="geometry"/>
                </mxCell>
                <mxCell id="200" value="" style="edgeStyle=entityRelationEdgeStyle;startArrow=none;endArrow=none;segment=10;curved=1;exitX=1;exitY=0.5;exitDx=0;exitDy=0;" parent="1" source="246" target="199" edge="1">
                    <mxGeometry relative="1" as="geometry">
                        <mxPoint x="828" y="2660" as="sourcePoint"/>
                    </mxGeometry>
                </mxCell>
                <mxCell id="205" value="H5?" style="whiteSpace=wrap;html=1;rounded=1;arcSize=50;align=center;verticalAlign=middle;strokeWidth=1;autosize=1;spacing=4;treeFolding=1;treeMoving=1;newEdgeStyle={&quot;edgeStyle&quot;:&quot;entityRelationEdgeStyle&quot;,&quot;startArrow&quot;:&quot;none&quot;,&quot;endArrow&quot;:&quot;none&quot;,&quot;segment&quot;:10,&quot;curved&quot;:1};" parent="1" vertex="1">
                    <mxGeometry x="810" y="2810" width="60" height="30" as="geometry"/>
                </mxCell>
                <mxCell id="207" value="" style="edgeStyle=entityRelationEdgeStyle;startArrow=none;endArrow=none;segment=10;curved=1;exitX=1;exitY=0.5;exitDx=0;exitDy=0;entryX=0;entryY=0.5;entryDx=0;entryDy=0;" parent="1" source="205" target="255" edge="1">
                    <mxGeometry relative="1" as="geometry">
                        <mxPoint x="760" y="2870" as="sourcePoint"/>
                        <mxPoint x="1296.4117647058824" y="2752.7058823529414" as="targetPoint"/>
                    </mxGeometry>
                </mxCell>
                <mxCell id="208" value="DOM Loading" style="whiteSpace=wrap;html=1;shape=partialRectangle;top=0;left=0;bottom=1;right=0;points=[[0,1],[1,1]];fillColor=none;align=left;verticalAlign=bottom;routingCenterY=0.5;snapToPoint=1;recursiveResize=0;autosize=1;treeFolding=1;treeMoving=1;newEdgeStyle={&quot;edgeStyle&quot;:&quot;entityRelationEdgeStyle&quot;,&quot;startArrow&quot;:&quot;none&quot;,&quot;endArrow&quot;:&quot;none&quot;,&quot;segment&quot;:10,&quot;curved&quot;:1};" parent="1" vertex="1" collapsed="1">
                    <mxGeometry x="1586" y="2640" width="110" height="20" as="geometry"/>
                </mxCell>
                <mxCell id="209" value="" style="edgeStyle=entityRelationEdgeStyle;startArrow=none;endArrow=none;segment=10;curved=1;exitX=1;exitY=0.5;exitDx=0;exitDy=0;" parent="1" source="256" target="208" edge="1">
                    <mxGeometry relative="1" as="geometry">
                        <mxPoint x="1245" y="2680" as="sourcePoint"/>
                    </mxGeometry>
                </mxCell>
                <mxCell id="210" value="DOM Interactive" style="whiteSpace=wrap;html=1;shape=partialRectangle;top=0;left=0;bottom=1;right=0;points=[[0,1],[1,1]];fillColor=none;align=left;verticalAlign=bottom;routingCenterY=0.5;snapToPoint=1;recursiveResize=0;autosize=1;treeFolding=1;treeMoving=1;newEdgeStyle={&quot;edgeStyle&quot;:&quot;entityRelationEdgeStyle&quot;,&quot;startArrow&quot;:&quot;none&quot;,&quot;endArrow&quot;:&quot;none&quot;,&quot;segment&quot;:10,&quot;curved&quot;:1};" parent="1" vertex="1">
                    <mxGeometry x="1586" y="2870" width="120" height="20" as="geometry"/>
                </mxCell>
                <mxCell id="211" value="" style="edgeStyle=entityRelationEdgeStyle;startArrow=none;endArrow=none;segment=10;curved=1;exitX=1;exitY=0.5;exitDx=0;exitDy=0;" parent="1" source="257" target="210" edge="1">
                    <mxGeometry relative="1" as="geometry">
                        <mxPoint x="1270" y="2760" as="sourcePoint"/>
                    </mxGeometry>
                </mxCell>
                <mxCell id="212" value="DOM Content Loaded" style="whiteSpace=wrap;html=1;shape=partialRectangle;top=0;left=0;bottom=1;right=0;points=[[0,1],[1,1]];fillColor=none;align=left;verticalAlign=bottom;routingCenterY=0.5;snapToPoint=1;recursiveResize=0;autosize=1;treeFolding=1;treeMoving=1;newEdgeStyle={&quot;edgeStyle&quot;:&quot;entityRelationEdgeStyle&quot;,&quot;startArrow&quot;:&quot;none&quot;,&quot;endArrow&quot;:&quot;none&quot;,&quot;segment&quot;:10,&quot;curved&quot;:1};" parent="1" vertex="1">
                    <mxGeometry x="1586" y="2930" width="150" height="20" as="geometry"/>
                </mxCell>
                <mxCell id="213" value="" style="edgeStyle=entityRelationEdgeStyle;startArrow=none;endArrow=none;segment=10;curved=1;exitX=1;exitY=0.5;exitDx=0;exitDy=0;" parent="1" source="258" target="212" edge="1">
                    <mxGeometry relative="1" as="geometry">
                        <mxPoint x="1275" y="2740" as="sourcePoint"/>
                    </mxGeometry>
                </mxCell>
                <mxCell id="214" value="DOM Complete" style="whiteSpace=wrap;html=1;shape=partialRectangle;top=0;left=0;bottom=1;right=0;points=[[0,1],[1,1]];fillColor=none;align=left;verticalAlign=bottom;routingCenterY=0.5;snapToPoint=1;recursiveResize=0;autosize=1;treeFolding=1;treeMoving=1;newEdgeStyle={&quot;edgeStyle&quot;:&quot;entityRelationEdgeStyle&quot;,&quot;startArrow&quot;:&quot;none&quot;,&quot;endArrow&quot;:&quot;none&quot;,&quot;segment&quot;:10,&quot;curved&quot;:1};" parent="1" vertex="1">
                    <mxGeometry x="1586" y="2970" width="120" height="20" as="geometry"/>
                </mxCell>
                <mxCell id="215" value="" style="edgeStyle=entityRelationEdgeStyle;startArrow=none;endArrow=none;segment=10;curved=1;exitX=1;exitY=0.5;exitDx=0;exitDy=0;" parent="1" source="259" target="214" edge="1">
                    <mxGeometry relative="1" as="geometry">
                        <mxPoint x="1275" y="2720" as="sourcePoint"/>
                    </mxGeometry>
                </mxCell>
                <mxCell id="216" value="平台相关" style="whiteSpace=wrap;html=1;rounded=1;arcSize=50;align=center;verticalAlign=middle;strokeWidth=1;autosize=1;spacing=4;treeFolding=1;treeMoving=1;newEdgeStyle={&quot;edgeStyle&quot;:&quot;entityRelationEdgeStyle&quot;,&quot;startArrow&quot;:&quot;none&quot;,&quot;endArrow&quot;:&quot;none&quot;,&quot;segment&quot;:10,&quot;curved&quot;:1};" parent="1" vertex="1">
                    <mxGeometry x="640" y="2810" width="90" height="30" as="geometry"/>
                </mxCell>
                <mxCell id="217" value="" style="edgeStyle=entityRelationEdgeStyle;startArrow=none;endArrow=none;segment=10;curved=1;exitX=1;exitY=0.5;exitDx=0;exitDy=0;entryX=0;entryY=0.5;entryDx=0;entryDy=0;" parent="1" source="216" target="205" edge="1">
                    <mxGeometry relative="1" as="geometry">
                        <mxPoint x="705" y="2967.5" as="sourcePoint"/>
                        <mxPoint x="770" y="2912.5" as="targetPoint"/>
                    </mxGeometry>
                </mxCell>
                <mxCell id="218" value="" style="edgeStyle=entityRelationEdgeStyle;startArrow=none;endArrow=none;segment=10;curved=1;exitX=1;exitY=0.5;exitDx=0;exitDy=0;entryX=0;entryY=0.5;entryDx=0;entryDy=0;" parent="1" source="172" target="216" edge="1">
                    <mxGeometry relative="1" as="geometry">
                        <mxPoint x="560" y="2855" as="sourcePoint"/>
                        <mxPoint x="665" y="2855" as="targetPoint"/>
                    </mxGeometry>
                </mxCell>
                <mxCell id="219" value="H5?" style="whiteSpace=wrap;html=1;rounded=1;arcSize=50;align=center;verticalAlign=middle;strokeWidth=1;autosize=1;spacing=4;treeFolding=1;treeMoving=1;newEdgeStyle={&quot;edgeStyle&quot;:&quot;entityRelationEdgeStyle&quot;,&quot;startArrow&quot;:&quot;none&quot;,&quot;endArrow&quot;:&quot;none&quot;,&quot;segment&quot;:10,&quot;curved&quot;:1};" parent="1" vertex="1">
                    <mxGeometry x="1190" y="2490" width="60" height="30" as="geometry"/>
                </mxCell>
                <mxCell id="220" value="平台相关" style="whiteSpace=wrap;html=1;rounded=1;arcSize=50;align=center;verticalAlign=middle;strokeWidth=1;autosize=1;spacing=4;treeFolding=1;treeMoving=1;newEdgeStyle={&quot;edgeStyle&quot;:&quot;entityRelationEdgeStyle&quot;,&quot;startArrow&quot;:&quot;none&quot;,&quot;endArrow&quot;:&quot;none&quot;,&quot;segment&quot;:10,&quot;curved&quot;:1};" parent="1" vertex="1">
                    <mxGeometry x="1030" y="2530" width="90" height="30" as="geometry"/>
                </mxCell>
                <mxCell id="221" value="" style="edgeStyle=entityRelationEdgeStyle;startArrow=none;endArrow=none;segment=10;curved=1;exitX=1;exitY=0.5;exitDx=0;exitDy=0;entryX=0;entryY=0.5;entryDx=0;entryDy=0;" parent="1" source="220" target="219" edge="1">
                    <mxGeometry relative="1" as="geometry">
                        <mxPoint x="950" y="2767.5" as="sourcePoint"/>
                        <mxPoint x="1015" y="2712.5" as="targetPoint"/>
                    </mxGeometry>
                </mxCell>
                <mxCell id="222" value="" style="edgeStyle=entityRelationEdgeStyle;startArrow=none;endArrow=none;segment=10;curved=1;exitX=1;exitY=0.5;exitDx=0;exitDy=0;entryX=0;entryY=0.5;entryDx=0;entryDy=0;" parent="1" source="244" target="220" edge="1">
                    <mxGeometry relative="1" as="geometry">
                        <mxPoint x="760" y="2625" as="sourcePoint"/>
                        <mxPoint x="900" y="2720" as="targetPoint"/>
                    </mxGeometry>
                </mxCell>
                <mxCell id="224" value="launch" style="whiteSpace=wrap;html=1;shape=partialRectangle;top=0;left=0;bottom=1;right=0;points=[[0,1],[1,1]];fillColor=none;align=left;verticalAlign=bottom;routingCenterY=0.5;snapToPoint=1;recursiveResize=0;autosize=1;treeFolding=1;treeMoving=1;newEdgeStyle={&quot;edgeStyle&quot;:&quot;entityRelationEdgeStyle&quot;,&quot;startArrow&quot;:&quot;none&quot;,&quot;endArrow&quot;:&quot;none&quot;,&quot;segment&quot;:10,&quot;curved&quot;:1};" parent="1" vertex="1">
                    <mxGeometry x="1300" y="2565" width="70" height="20" as="geometry"/>
                </mxCell>
                <mxCell id="225" value="" style="edgeStyle=entityRelationEdgeStyle;startArrow=none;endArrow=none;segment=10;curved=1;exitX=1;exitY=0.5;exitDx=0;exitDy=0;" parent="1" source="228" target="224" edge="1">
                    <mxGeometry relative="1" as="geometry">
                        <mxPoint x="945" y="2580" as="sourcePoint"/>
                    </mxGeometry>
                </mxCell>
                <mxCell id="228" value="小程序?" style="whiteSpace=wrap;html=1;rounded=1;arcSize=50;align=center;verticalAlign=middle;strokeWidth=1;autosize=1;spacing=4;treeFolding=1;treeMoving=1;newEdgeStyle={&quot;edgeStyle&quot;:&quot;entityRelationEdgeStyle&quot;,&quot;startArrow&quot;:&quot;none&quot;,&quot;endArrow&quot;:&quot;none&quot;,&quot;segment&quot;:10,&quot;curved&quot;:1};" parent="1" vertex="1">
                    <mxGeometry x="1180" y="2555" width="80" height="30" as="geometry"/>
                </mxCell>
                <mxCell id="229" value="" style="edgeStyle=entityRelationEdgeStyle;startArrow=none;endArrow=none;segment=10;curved=1;exitX=1;exitY=0.5;exitDx=0;exitDy=0;entryX=0;entryY=0.5;entryDx=0;entryDy=0;" parent="1" source="220" target="228" edge="1">
                    <mxGeometry relative="1" as="geometry">
                        <mxPoint x="1130" y="2555" as="sourcePoint"/>
                        <mxPoint x="1225" y="2505" as="targetPoint"/>
                    </mxGeometry>
                </mxCell>
                <mxCell id="230" value="DNS" style="whiteSpace=wrap;html=1;shape=partialRectangle;top=0;left=0;bottom=1;right=0;points=[[0,1],[1,1]];fillColor=none;align=left;verticalAlign=bottom;routingCenterY=0.5;snapToPoint=1;recursiveResize=0;autosize=1;treeFolding=1;treeMoving=1;newEdgeStyle={&quot;edgeStyle&quot;:&quot;entityRelationEdgeStyle&quot;,&quot;startArrow&quot;:&quot;none&quot;,&quot;endArrow&quot;:&quot;none&quot;,&quot;segment&quot;:10,&quot;curved&quot;:1};" parent="1" vertex="1" collapsed="1">
                    <mxGeometry x="1586" y="2675" width="60" height="20" as="geometry"/>
                </mxCell>
                <mxCell id="231" value="" style="edgeStyle=entityRelationEdgeStyle;startArrow=none;endArrow=none;segment=10;curved=1;exitX=1;exitY=0.5;exitDx=0;exitDy=0;" parent="1" source="256" target="230" edge="1">
                    <mxGeometry relative="1" as="geometry">
                        <mxPoint x="1791" y="2587.5" as="sourcePoint"/>
                    </mxGeometry>
                </mxCell>
                <mxCell id="232" value="TCP" style="whiteSpace=wrap;html=1;shape=partialRectangle;top=0;left=0;bottom=1;right=0;points=[[0,1],[1,1]];fillColor=none;align=left;verticalAlign=bottom;routingCenterY=0.5;snapToPoint=1;recursiveResize=0;autosize=1;treeFolding=1;treeMoving=1;newEdgeStyle={&quot;edgeStyle&quot;:&quot;entityRelationEdgeStyle&quot;,&quot;startArrow&quot;:&quot;none&quot;,&quot;endArrow&quot;:&quot;none&quot;,&quot;segment&quot;:10,&quot;curved&quot;:1};" parent="1" vertex="1">
                    <mxGeometry x="1586" y="2705" width="60" height="20" as="geometry"/>
                </mxCell>
                <mxCell id="233" value="TLS" style="whiteSpace=wrap;html=1;shape=partialRectangle;top=0;left=0;bottom=1;right=0;points=[[0,1],[1,1]];fillColor=none;align=left;verticalAlign=bottom;routingCenterY=0.5;snapToPoint=1;recursiveResize=0;autosize=1;treeFolding=1;treeMoving=1;newEdgeStyle={&quot;edgeStyle&quot;:&quot;entityRelationEdgeStyle&quot;,&quot;startArrow&quot;:&quot;none&quot;,&quot;endArrow&quot;:&quot;none&quot;,&quot;segment&quot;:10,&quot;curved&quot;:1};" parent="1" vertex="1" collapsed="1">
                    <mxGeometry x="1586" y="2735" width="50" height="20" as="geometry"/>
                </mxCell>
                <mxCell id="234" value="HTTP" style="whiteSpace=wrap;html=1;shape=partialRectangle;top=0;left=0;bottom=1;right=0;points=[[0,1],[1,1]];fillColor=none;align=left;verticalAlign=bottom;routingCenterY=0.5;snapToPoint=1;recursiveResize=0;autosize=1;treeFolding=1;treeMoving=1;newEdgeStyle={&quot;edgeStyle&quot;:&quot;entityRelationEdgeStyle&quot;,&quot;startArrow&quot;:&quot;none&quot;,&quot;endArrow&quot;:&quot;none&quot;,&quot;segment&quot;:10,&quot;curved&quot;:1};" parent="1" vertex="1">
                    <mxGeometry x="1586" y="2765" width="60" height="20" as="geometry"/>
                </mxCell>
                <mxCell id="235" value="HTTP 版本?" style="whiteSpace=wrap;html=1;shape=partialRectangle;top=0;left=0;bottom=1;right=0;points=[[0,1],[1,1]];fillColor=none;align=left;verticalAlign=bottom;routingCenterY=0.5;snapToPoint=1;recursiveResize=0;autosize=1;treeFolding=1;treeMoving=1;newEdgeStyle={&quot;edgeStyle&quot;:&quot;entityRelationEdgeStyle&quot;,&quot;startArrow&quot;:&quot;none&quot;,&quot;endArrow&quot;:&quot;none&quot;,&quot;segment&quot;:10,&quot;curved&quot;:1};" parent="1" vertex="1">
                    <mxGeometry x="1586" y="2795" width="100" height="20" as="geometry"/>
                </mxCell>
                <mxCell id="236" value="" style="edgeStyle=entityRelationEdgeStyle;startArrow=none;endArrow=none;segment=10;curved=1;exitX=1;exitY=0.5;exitDx=0;exitDy=0;entryX=0;entryY=1;entryDx=0;entryDy=0;" parent="1" source="256" target="232" edge="1">
                    <mxGeometry relative="1" as="geometry">
                        <mxPoint x="1766" y="2697.5" as="sourcePoint"/>
                        <mxPoint x="1586" y="2725" as="targetPoint"/>
                    </mxGeometry>
                </mxCell>
                <mxCell id="237" value="" style="edgeStyle=entityRelationEdgeStyle;startArrow=none;endArrow=none;segment=10;curved=1;exitX=1;exitY=0.5;exitDx=0;exitDy=0;entryX=0;entryY=1;entryDx=0;entryDy=0;" parent="1" source="256" target="233" edge="1">
                    <mxGeometry relative="1" as="geometry">
                        <mxPoint x="1776" y="2707.5" as="sourcePoint"/>
                        <mxPoint x="1841.4705882352941" y="2666.970588235294" as="targetPoint"/>
                    </mxGeometry>
                </mxCell>
                <mxCell id="238" value="" style="edgeStyle=entityRelationEdgeStyle;startArrow=none;endArrow=none;segment=10;curved=1;exitX=1;exitY=0.5;exitDx=0;exitDy=0;entryX=0;entryY=1;entryDx=0;entryDy=0;" parent="1" source="256" target="234" edge="1">
                    <mxGeometry relative="1" as="geometry">
                        <mxPoint x="1786" y="2717.5" as="sourcePoint"/>
                        <mxPoint x="1851.4705882352941" y="2676.970588235294" as="targetPoint"/>
                    </mxGeometry>
                </mxCell>
                <mxCell id="239" value="" style="edgeStyle=entityRelationEdgeStyle;startArrow=none;endArrow=none;segment=10;curved=1;exitX=1;exitY=0.5;exitDx=0;exitDy=0;entryX=0;entryY=1;entryDx=0;entryDy=0;" parent="1" source="256" target="235" edge="1">
                    <mxGeometry relative="1" as="geometry">
                        <mxPoint x="1766" y="2697.5" as="sourcePoint"/>
                        <mxPoint x="1851" y="2747.5" as="targetPoint"/>
                    </mxGeometry>
                </mxCell>
                <mxCell id="240" value="网速?" style="whiteSpace=wrap;html=1;shape=partialRectangle;top=0;left=0;bottom=1;right=0;points=[[0,1],[1,1]];fillColor=none;align=left;verticalAlign=bottom;routingCenterY=0.5;snapToPoint=1;recursiveResize=0;autosize=1;treeFolding=1;treeMoving=1;newEdgeStyle={&quot;edgeStyle&quot;:&quot;entityRelationEdgeStyle&quot;,&quot;startArrow&quot;:&quot;none&quot;,&quot;endArrow&quot;:&quot;none&quot;,&quot;segment&quot;:10,&quot;curved&quot;:1};" parent="1" vertex="1">
                    <mxGeometry x="1586" y="2830" width="60" height="20" as="geometry"/>
                </mxCell>
                <mxCell id="241" value="" style="edgeStyle=entityRelationEdgeStyle;startArrow=none;endArrow=none;segment=10;curved=1;exitX=1;exitY=0.5;exitDx=0;exitDy=0;entryX=0;entryY=1;entryDx=0;entryDy=0;" parent="1" source="256" target="240" edge="1">
                    <mxGeometry relative="1" as="geometry">
                        <mxPoint x="1766" y="2737.5" as="sourcePoint"/>
                        <mxPoint x="1861" y="2797.5" as="targetPoint"/>
                    </mxGeometry>
                </mxCell>
                <mxCell id="242" value="DOM Content Loaded Event" style="whiteSpace=wrap;html=1;shape=partialRectangle;top=0;left=0;bottom=1;right=0;points=[[0,1],[1,1]];fillColor=none;align=left;verticalAlign=bottom;routingCenterY=0.5;snapToPoint=1;recursiveResize=0;autosize=1;treeFolding=1;treeMoving=1;newEdgeStyle={&quot;edgeStyle&quot;:&quot;entityRelationEdgeStyle&quot;,&quot;startArrow&quot;:&quot;none&quot;,&quot;endArrow&quot;:&quot;none&quot;,&quot;segment&quot;:10,&quot;curved&quot;:1};" parent="1" vertex="1">
                    <mxGeometry x="1586" y="3020" width="180" height="20" as="geometry"/>
                </mxCell>
                <mxCell id="243" value="" style="edgeStyle=entityRelationEdgeStyle;startArrow=none;endArrow=none;segment=10;curved=1;exitX=1;exitY=0.5;exitDx=0;exitDy=0;entryX=0;entryY=1;entryDx=0;entryDy=0;" parent="1" source="259" target="242" edge="1">
                    <mxGeometry relative="1" as="geometry">
                        <mxPoint x="1796" y="2702.5" as="sourcePoint"/>
                        <mxPoint x="1901" y="2812.5" as="targetPoint"/>
                    </mxGeometry>
                </mxCell>
                <mxCell id="244" value="&lt;span style=&quot;text-align: left&quot;&gt;感知启动阶段&lt;/span&gt;" style="whiteSpace=wrap;html=1;rounded=1;arcSize=50;align=center;verticalAlign=middle;strokeWidth=1;autosize=1;spacing=4;treeFolding=1;treeMoving=1;newEdgeStyle={&quot;edgeStyle&quot;:&quot;entityRelationEdgeStyle&quot;,&quot;startArrow&quot;:&quot;none&quot;,&quot;endArrow&quot;:&quot;none&quot;,&quot;segment&quot;:10,&quot;curved&quot;:1};" parent="1" vertex="1">
                    <mxGeometry x="801" y="2600" width="110" height="30" as="geometry"/>
                </mxCell>
                <mxCell id="245" value="&lt;span style=&quot;text-align: left&quot;&gt;FMP?&lt;/span&gt;" style="whiteSpace=wrap;html=1;rounded=1;arcSize=50;align=center;verticalAlign=middle;strokeWidth=1;autosize=1;spacing=4;treeFolding=1;treeMoving=1;newEdgeStyle={&quot;edgeStyle&quot;:&quot;entityRelationEdgeStyle&quot;,&quot;startArrow&quot;:&quot;none&quot;,&quot;endArrow&quot;:&quot;none&quot;,&quot;segment&quot;:10,&quot;curved&quot;:1};" parent="1" vertex="1">
                    <mxGeometry x="1040" y="2590" width="70" height="30" as="geometry"/>
                </mxCell>
                <mxCell id="246" value="&lt;span style=&quot;text-align: left&quot;&gt;TTI?&lt;/span&gt;" style="whiteSpace=wrap;html=1;rounded=1;arcSize=50;align=center;verticalAlign=middle;strokeWidth=1;autosize=1;spacing=4;treeFolding=1;treeMoving=1;newEdgeStyle={&quot;edgeStyle&quot;:&quot;entityRelationEdgeStyle&quot;,&quot;startArrow&quot;:&quot;none&quot;,&quot;endArrow&quot;:&quot;none&quot;,&quot;segment&quot;:10,&quot;curved&quot;:1};" parent="1" vertex="1">
                    <mxGeometry x="1040" y="2640" width="70" height="30" as="geometry"/>
                </mxCell>
                <mxCell id="249" value="" style="edgeStyle=entityRelationEdgeStyle;startArrow=none;endArrow=none;segment=10;curved=1;exitX=1;exitY=0.5;exitDx=0;exitDy=0;entryX=0;entryY=0.5;entryDx=0;entryDy=0;" parent="1" source="244" target="245" edge="1">
                    <mxGeometry relative="1" as="geometry">
                        <mxPoint x="1061" y="2605" as="sourcePoint"/>
                        <mxPoint x="1118" y="2630" as="targetPoint"/>
                    </mxGeometry>
                </mxCell>
                <mxCell id="250" value="" style="edgeStyle=entityRelationEdgeStyle;startArrow=none;endArrow=none;segment=10;curved=1;exitX=1;exitY=0.5;exitDx=0;exitDy=0;entryX=0;entryY=0.5;entryDx=0;entryDy=0;" parent="1" source="244" target="246" edge="1">
                    <mxGeometry relative="1" as="geometry">
                        <mxPoint x="760" y="2625" as="sourcePoint"/>
                        <mxPoint x="991" y="2605" as="targetPoint"/>
                    </mxGeometry>
                </mxCell>
                <mxCell id="251" value="&lt;span style=&quot;text-align: left&quot;&gt;FP?&lt;/span&gt;" style="whiteSpace=wrap;html=1;rounded=1;arcSize=50;align=center;verticalAlign=middle;strokeWidth=1;autosize=1;spacing=4;treeFolding=1;treeMoving=1;newEdgeStyle={&quot;edgeStyle&quot;:&quot;entityRelationEdgeStyle&quot;,&quot;startArrow&quot;:&quot;none&quot;,&quot;endArrow&quot;:&quot;none&quot;,&quot;segment&quot;:10,&quot;curved&quot;:1};" parent="1" vertex="1">
                    <mxGeometry x="1295" y="2465" width="60" height="30" as="geometry"/>
                </mxCell>
                <mxCell id="252" value="&lt;span style=&quot;text-align: left&quot;&gt;FCP?&lt;/span&gt;" style="whiteSpace=wrap;html=1;rounded=1;arcSize=50;align=center;verticalAlign=middle;strokeWidth=1;autosize=1;spacing=4;treeFolding=1;treeMoving=1;newEdgeStyle={&quot;edgeStyle&quot;:&quot;entityRelationEdgeStyle&quot;,&quot;startArrow&quot;:&quot;none&quot;,&quot;endArrow&quot;:&quot;none&quot;,&quot;segment&quot;:10,&quot;curved&quot;:1};" parent="1" vertex="1">
                    <mxGeometry x="1296" y="2515" width="70" height="30" as="geometry"/>
                </mxCell>
                <mxCell id="253" value="" style="edgeStyle=entityRelationEdgeStyle;startArrow=none;endArrow=none;segment=10;curved=1;exitX=1;exitY=0.5;exitDx=0;exitDy=0;entryX=0;entryY=0.5;entryDx=0;entryDy=0;" parent="1" source="219" target="252" edge="1">
                    <mxGeometry relative="1" as="geometry">
                        <mxPoint x="1350" y="2435" as="sourcePoint"/>
                        <mxPoint x="1410" y="2420" as="targetPoint"/>
                    </mxGeometry>
                </mxCell>
                <mxCell id="254" value="" style="edgeStyle=entityRelationEdgeStyle;startArrow=none;endArrow=none;segment=10;curved=1;exitX=1;exitY=0.5;exitDx=0;exitDy=0;entryX=0;entryY=0.5;entryDx=0;entryDy=0;" parent="1" source="219" target="251" edge="1">
                    <mxGeometry relative="1" as="geometry">
                        <mxPoint x="1360" y="2445" as="sourcePoint"/>
                        <mxPoint x="1420" y="2430" as="targetPoint"/>
                    </mxGeometry>
                </mxCell>
                <mxCell id="255" value="&lt;span style=&quot;text-align: left&quot;&gt;启动阶段&lt;/span&gt;" style="whiteSpace=wrap;html=1;rounded=1;arcSize=50;align=center;verticalAlign=middle;strokeWidth=1;autosize=1;spacing=4;treeFolding=1;treeMoving=1;newEdgeStyle={&quot;edgeStyle&quot;:&quot;entityRelationEdgeStyle&quot;,&quot;startArrow&quot;:&quot;none&quot;,&quot;endArrow&quot;:&quot;none&quot;,&quot;segment&quot;:10,&quot;curved&quot;:1};" parent="1" vertex="1">
                    <mxGeometry x="970" y="2810" width="90" height="30" as="geometry"/>
                </mxCell>
                <mxCell id="256" value="&lt;span style=&quot;text-align: left&quot;&gt;DOM Loading&lt;/span&gt;" style="whiteSpace=wrap;html=1;rounded=1;arcSize=50;align=center;verticalAlign=middle;strokeWidth=1;autosize=1;spacing=4;treeFolding=1;treeMoving=1;newEdgeStyle={&quot;edgeStyle&quot;:&quot;entityRelationEdgeStyle&quot;,&quot;startArrow&quot;:&quot;none&quot;,&quot;endArrow&quot;:&quot;none&quot;,&quot;segment&quot;:10,&quot;curved&quot;:1};" parent="1" vertex="1">
                    <mxGeometry x="1350" y="2720" width="110" height="30" as="geometry"/>
                </mxCell>
                <mxCell id="257" value="&lt;span style=&quot;text-align: left&quot;&gt;DOM Interactive&lt;/span&gt;" style="whiteSpace=wrap;html=1;rounded=1;arcSize=50;align=center;verticalAlign=middle;strokeWidth=1;autosize=1;spacing=4;treeFolding=1;treeMoving=1;newEdgeStyle={&quot;edgeStyle&quot;:&quot;entityRelationEdgeStyle&quot;,&quot;startArrow&quot;:&quot;none&quot;,&quot;endArrow&quot;:&quot;none&quot;,&quot;segment&quot;:10,&quot;curved&quot;:1};" parent="1" vertex="1">
                    <mxGeometry x="1350" y="2810" width="130" height="30" as="geometry"/>
                </mxCell>
                <mxCell id="258" value="&lt;span style=&quot;text-align: left&quot;&gt;DOM Content Loaded&lt;/span&gt;" style="whiteSpace=wrap;html=1;rounded=1;arcSize=50;align=center;verticalAlign=middle;strokeWidth=1;autosize=1;spacing=4;treeFolding=1;treeMoving=1;newEdgeStyle={&quot;edgeStyle&quot;:&quot;entityRelationEdgeStyle&quot;,&quot;startArrow&quot;:&quot;none&quot;,&quot;endArrow&quot;:&quot;none&quot;,&quot;segment&quot;:10,&quot;curved&quot;:1};" parent="1" vertex="1">
                    <mxGeometry x="1340" y="2890" width="160" height="30" as="geometry"/>
                </mxCell>
                <mxCell id="259" value="&lt;span style=&quot;text-align: left&quot;&gt;DOM Complete&lt;/span&gt;" style="whiteSpace=wrap;html=1;rounded=1;arcSize=50;align=center;verticalAlign=middle;strokeWidth=1;autosize=1;spacing=4;treeFolding=1;treeMoving=1;newEdgeStyle={&quot;edgeStyle&quot;:&quot;entityRelationEdgeStyle&quot;,&quot;startArrow&quot;:&quot;none&quot;,&quot;endArrow&quot;:&quot;none&quot;,&quot;segment&quot;:10,&quot;curved&quot;:1};" parent="1" vertex="1">
                    <mxGeometry x="1360" y="2975" width="120" height="30" as="geometry"/>
                </mxCell>
                <mxCell id="261" value="" style="edgeStyle=entityRelationEdgeStyle;startArrow=none;endArrow=none;segment=10;curved=1;exitX=1;exitY=0.5;exitDx=0;exitDy=0;entryX=0;entryY=0.5;entryDx=0;entryDy=0;" parent="1" source="255" target="257" edge="1">
                    <mxGeometry relative="1" as="geometry">
                        <mxPoint x="879.9999999999998" y="2835" as="sourcePoint"/>
                        <mxPoint x="1305.4285714285716" y="2762.714285714286" as="targetPoint"/>
                    </mxGeometry>
                </mxCell>
                <mxCell id="262" value="" style="edgeStyle=entityRelationEdgeStyle;startArrow=none;endArrow=none;segment=10;curved=1;exitX=1;exitY=0.5;exitDx=0;exitDy=0;entryX=0;entryY=0.5;entryDx=0;entryDy=0;" parent="1" source="255" target="258" edge="1">
                    <mxGeometry relative="1" as="geometry">
                        <mxPoint x="889.9999999999998" y="2845" as="sourcePoint"/>
                        <mxPoint x="1315.4285714285716" y="2772.714285714286" as="targetPoint"/>
                    </mxGeometry>
                </mxCell>
                <mxCell id="263" value="" style="edgeStyle=entityRelationEdgeStyle;startArrow=none;endArrow=none;segment=10;curved=1;exitX=1;exitY=0.5;exitDx=0;exitDy=0;entryX=0;entryY=0.5;entryDx=0;entryDy=0;" parent="1" source="255" target="259" edge="1">
                    <mxGeometry relative="1" as="geometry">
                        <mxPoint x="899.9999999999998" y="2855" as="sourcePoint"/>
                        <mxPoint x="1325.4285714285716" y="2782.714285714286" as="targetPoint"/>
                    </mxGeometry>
                </mxCell>
                <mxCell id="264" value="" style="edgeStyle=entityRelationEdgeStyle;startArrow=none;endArrow=none;segment=10;curved=1;exitX=1;exitY=0.5;exitDx=0;exitDy=0;entryX=0;entryY=0.5;entryDx=0;entryDy=0;" parent="1" source="255" target="256" edge="1">
                    <mxGeometry relative="1" as="geometry">
                        <mxPoint x="909.9999999999998" y="2865" as="sourcePoint"/>
                        <mxPoint x="1020" y="2940" as="targetPoint"/>
                    </mxGeometry>
                </mxCell>
                <mxCell id="266" value="启动阶段" style="whiteSpace=wrap;html=1;shape=partialRectangle;top=0;left=0;bottom=1;right=0;points=[[0,1],[1,1]];fillColor=none;align=left;verticalAlign=bottom;routingCenterY=0.5;snapToPoint=1;recursiveResize=0;autosize=1;treeFolding=1;treeMoving=1;newEdgeStyle={&quot;edgeStyle&quot;:&quot;entityRelationEdgeStyle&quot;,&quot;startArrow&quot;:&quot;none&quot;,&quot;endArrow&quot;:&quot;none&quot;,&quot;segment&quot;:10,&quot;curved&quot;:1};" parent="1" vertex="1">
                    <mxGeometry x="820" y="2755" width="80" height="20" as="geometry"/>
                </mxCell>
                <mxCell id="267" value="" style="edgeStyle=entityRelationEdgeStyle;startArrow=none;endArrow=none;segment=10;curved=1;exitX=1;exitY=0.5;exitDx=0;exitDy=0;" parent="1" source="216" target="266" edge="1">
                    <mxGeometry relative="1" as="geometry">
                        <mxPoint x="1176" y="2995" as="sourcePoint"/>
                    </mxGeometry>
                </mxCell>
                <mxCell id="268" value="感知启动阶段" style="whiteSpace=wrap;html=1;shape=partialRectangle;top=0;left=0;bottom=1;right=0;points=[[0,1],[1,1]];fillColor=none;align=left;verticalAlign=bottom;routingCenterY=0.5;snapToPoint=1;recursiveResize=0;autosize=1;treeFolding=1;treeMoving=1;newEdgeStyle={&quot;edgeStyle&quot;:&quot;entityRelationEdgeStyle&quot;,&quot;startArrow&quot;:&quot;none&quot;,&quot;endArrow&quot;:&quot;none&quot;,&quot;segment&quot;:10,&quot;curved&quot;:1};" parent="1" vertex="1">
                    <mxGeometry x="820" y="2680" width="100" height="20" as="geometry"/>
                </mxCell>
                <mxCell id="269" value="" style="edgeStyle=entityRelationEdgeStyle;startArrow=none;endArrow=none;segment=10;curved=1;exitX=1;exitY=0.5;exitDx=0;exitDy=0;" parent="1" source="189" target="268" edge="1">
                    <mxGeometry relative="1" as="geometry">
                        <mxPoint x="980" y="2279.6699999999996" as="sourcePoint"/>
                    </mxGeometry>
                </mxCell>
                <mxCell id="270" value="伪设备 ID" style="whiteSpace=wrap;html=1;shape=partialRectangle;top=0;left=0;bottom=1;right=0;points=[[0,1],[1,1]];fillColor=none;align=left;verticalAlign=bottom;routingCenterY=0.5;snapToPoint=1;recursiveResize=0;autosize=1;treeFolding=1;treeMoving=1;newEdgeStyle={&quot;edgeStyle&quot;:&quot;entityRelationEdgeStyle&quot;,&quot;startArrow&quot;:&quot;none&quot;,&quot;endArrow&quot;:&quot;none&quot;,&quot;segment&quot;:10,&quot;curved&quot;:1};" parent="1" vertex="1">
                    <mxGeometry x="1025" y="820" width="80" height="20" as="geometry"/>
                </mxCell>
                <mxCell id="271" value="" style="edgeStyle=entityRelationEdgeStyle;startArrow=none;endArrow=none;segment=10;curved=1;exitX=1;exitY=0.5;exitDx=0;exitDy=0;" parent="1" source="tOMAKgP3rDthFPzLRQrB-29" target="270" edge="1">
                    <mxGeometry relative="1" as="geometry">
                        <mxPoint x="955" y="882" as="sourcePoint"/>
                    </mxGeometry>
                </mxCell>
                <mxCell id="274" style="edgeStyle=orthogonalEdgeStyle;rounded=0;orthogonalLoop=1;jettySize=auto;html=1;entryX=0;entryY=0.5;entryDx=0;entryDy=0;" parent="1" source="272" target="nmE42dB6QyYmcY3QH0II-6" edge="1">
                    <mxGeometry relative="1" as="geometry"/>
                </mxCell>
                <mxCell id="272" value="NAV" style="whiteSpace=wrap;html=1;rounded=1;arcSize=50;align=center;verticalAlign=middle;strokeWidth=1;autosize=1;spacing=4;treeFolding=1;treeMoving=1;newEdgeStyle={&quot;edgeStyle&quot;:&quot;entityRelationEdgeStyle&quot;,&quot;startArrow&quot;:&quot;none&quot;,&quot;endArrow&quot;:&quot;none&quot;,&quot;segment&quot;:10,&quot;curved&quot;:1};" parent="1" vertex="1">
                    <mxGeometry x="-47.5" y="405" width="60" height="30" as="geometry"/>
                </mxCell>
                <mxCell id="277" style="edgeStyle=orthogonalEdgeStyle;rounded=0;orthogonalLoop=1;jettySize=auto;html=1;" parent="1" source="275" target="nmE42dB6QyYmcY3QH0II-15" edge="1">
                    <mxGeometry relative="1" as="geometry"/>
                </mxCell>
                <mxCell id="275" value="NAV" style="whiteSpace=wrap;html=1;rounded=1;arcSize=50;align=center;verticalAlign=middle;strokeWidth=1;autosize=1;spacing=4;treeFolding=1;treeMoving=1;newEdgeStyle={&quot;edgeStyle&quot;:&quot;entityRelationEdgeStyle&quot;,&quot;startArrow&quot;:&quot;none&quot;,&quot;endArrow&quot;:&quot;none&quot;,&quot;segment&quot;:10,&quot;curved&quot;:1};" parent="1" vertex="1">
                    <mxGeometry x="463.5" y="445" width="60" height="30" as="geometry"/>
                </mxCell>
                <mxCell id="278" value="" style="edgeStyle=entityRelationEdgeStyle;startArrow=none;endArrow=none;segment=10;curved=1;entryX=0.5;entryY=0;entryDx=0;entryDy=0;exitX=0.5;exitY=1;exitDx=0;exitDy=0;" edge="1" parent="1" source="nmE42dB6QyYmcY3QH0II-6" target="nmE42dB6QyYmcY3QH0II-49">
                    <mxGeometry relative="1" as="geometry">
                        <mxPoint x="198.5" y="445" as="sourcePoint"/>
                        <mxPoint x="358.5" y="495" as="targetPoint"/>
                    </mxGeometry>
                </mxCell>
                <mxCell id="279" value="" style="edgeStyle=entityRelationEdgeStyle;startArrow=none;endArrow=none;segment=10;curved=1;exitX=0.5;exitY=1;exitDx=0;exitDy=0;entryX=0.5;entryY=0;entryDx=0;entryDy=0;" edge="1" parent="1" source="nmE42dB6QyYmcY3QH0II-15" target="nmE42dB6QyYmcY3QH0II-45">
                    <mxGeometry relative="1" as="geometry">
                        <mxPoint x="793.5" y="485" as="sourcePoint"/>
                        <mxPoint x="950" y="580" as="targetPoint"/>
                    </mxGeometry>
                </mxCell>
            </root>
        </mxGraphModel>
    </diagram>
</mxfile>